<?xml version="1.0" encoding="utf-8"?>
<!-- Generator: Adobe Illustrator 23.0.6, SVG Export Plug-In . SVG Version: 6.00 Build 0)  -->
<svg version="1.1" id="Capa_1" xmlns="http://www.w3.org/2000/svg" xmlns:xlink="http://www.w3.org/1999/xlink" x="0px" y="0px"
	 viewBox="0 0 84 84" style="enable-background:new 0 0 84 84;" xml:space="preserve">
<style type="text/css">
	.st0{fill:#FFFFFF;}
</style>
<path id="box" class="st0" d="M18.6,13.4c-2.1,0-3.7,1.7-3.8,3.8v9c0.1,1.7,1.3,3.2,3,3.5v31.2c0,5.4,4.4,9.8,9.8,9.8h28.6
	c5.4,0,9.8-4.4,9.8-9.8V29.6c1.7-0.3,2.9-1.7,3-3.5v-9c0-2.1-1.7-3.7-3.8-3.8H18.6z M19.4,17.9h45.2v7.5H19.4L19.4,17.9z M22.4,29.9
	h39.2v30.9c0,2.9-2.3,5.3-5.2,5.3c0,0,0,0-0.1,0H27.7c-2.9,0-5.3-2.3-5.3-5.2c0,0,0,0,0-0.1L22.4,29.9z M35.2,39
	C34,39,33,40,33,41.2c0,1.2,1,2.3,2.3,2.3c0,0,0,0,0,0h13.6c1.2,0,2.3-1,2.3-2.3c0-1.2-1-2.3-2.3-2.3c0,0,0,0,0,0H35.2z"/>
</svg>
