<?xml version="1.0" encoding="utf-8"?>
<!-- Generator: Adobe Illustrator 23.0.6, SVG Export Plug-In . SVG Version: 6.00 Build 0)  -->
<svg version="1.1" id="Capa_1" xmlns="http://www.w3.org/2000/svg" xmlns:xlink="http://www.w3.org/1999/xlink" x="0px" y="0px"
	 viewBox="0 0 84 84" style="enable-background:new 0 0 84 84;" xml:space="preserve">
<style type="text/css">
	.st0{fill:#FFFFFF;}
</style>
<path id="home_roof_building_house" class="st0" d="M30.5,39.1c0-1.6,1.3-2.9,2.9-2.9c0,0,0,0,0,0h17.2c1.6,0,2.9,1.2,2.9,2.8
	c0,1.6-1.2,2.9-2.8,2.9c0,0-0.1,0-0.1,0H33.4C31.8,42,30.5,40.7,30.5,39.1z M70.2,35c-0.5,0.8-1.4,1.3-2.4,1.3h-2.9v31.5
	c0,0.8-0.3,1.5-0.8,2c-0.3,0.2-0.6,0.4-0.9,0.6c-0.4,0.1-0.7,0.2-1.1,0.2H21.9c-1.6,0-2.9-1.3-2.9-2.9V36.3h-2.9
	c-0.9,0-1.8-0.5-2.4-1.3l0,0c-0.9-1.3-0.5-3.1,0.8-4c0,0,0,0,0,0l10.2-6.8v-8c0-1.6,1.3-2.8,2.9-2.8c1.5,0,2.8,1.3,2.8,2.8v4.2
	l9.9-6.6l0,0c0.5-0.3,1-0.5,1.6-0.5l0,0c0.6,0,1.1,0.2,1.6,0.5l23.6,15.8l2.1,1.4C70.7,31.9,71,33.7,70.2,35
	C70.2,35,70.2,35,70.2,35L70.2,35z M47.7,53.5H36.3v11.5h11.5V53.5z M59.2,31.1L42,19.7L24.8,31.1v33.8h5.7V50.6
	c0-1.6,1.3-2.9,2.9-2.9l0,0h17.2c1.6,0,2.9,1.3,2.9,2.9v14.3h5.7V31.1z"/>
</svg>
