<svg id="Group_30" data-name="Group 30" xmlns="http://www.w3.org/2000/svg" xmlns:xlink="http://www.w3.org/1999/xlink" width="180" height="180.413" viewBox="0 0 180 180.413">
  <defs>
    <clipPath id="clip-path">
      <rect id="Rectangle_55" data-name="Rectangle 55" width="180" height="180.413" fill="none"/>
    </clipPath>
  </defs>
  <g id="Group_29" data-name="Group 29" clip-path="url(#clip-path)">
    <path id="Path_8026" data-name="Path 8026" d="M67.631,121.73a52.869,52.869,0,1,1,74.768,0,52.869,52.869,0,0,1-74.768,0" transform="translate(-14.809 -8.939)" fill="#e6f6f8"/>
    <path id="Path_8027" data-name="Path 8027" d="M137.022,130.865a25.872,25.872,0,0,1-36.588,0" transform="translate(-28.522 -37.164)" fill="none" stroke="#c2eaef" stroke-linecap="round" stroke-linejoin="round" stroke-width="1.969"/>
    <path id="Path_8028" data-name="Path 8028" d="M100.434,76.759a25.872,25.872,0,0,1,36.588,0" transform="translate(-28.522 -19.646)" fill="none" stroke="#c2eaef" stroke-linecap="round" stroke-linejoin="round" stroke-width="1.969"/>
    <line id="Line_1" data-name="Line 1" x1="7.954" y2="7.954" transform="translate(123.614 34.046)" fill="none" stroke="#c2eaef" stroke-linecap="round" stroke-linejoin="round" stroke-width="1.969"/>
    <line id="Line_2" data-name="Line 2" x1="7.954" y2="7.954" transform="translate(48.845 108.814)" fill="none" stroke="#c2eaef" stroke-linecap="round" stroke-linejoin="round" stroke-width="1.969"/>
    <line id="Line_3" data-name="Line 3" x1="7.954" y1="7.954" transform="translate(123.614 108.814)" fill="none" stroke="#c2eaef" stroke-linecap="round" stroke-linejoin="round" stroke-width="1.969"/>
    <line id="Line_4" data-name="Line 4" y1="11.249" transform="translate(89.809 94.695)" fill="none" stroke="#c2eaef" stroke-linecap="round" stroke-linejoin="round" stroke-width="1.969"/>
    <line id="Line_5" data-name="Line 5" y1="11.249" transform="translate(89.809 44.075)" fill="none" stroke="#c2eaef" stroke-linecap="round" stroke-linejoin="round" stroke-width="1.969"/>
    <line id="Line_6" data-name="Line 6" x2="11.249" transform="translate(58.875 75.009)" fill="none" stroke="#c2eaef" stroke-linecap="round" stroke-linejoin="round" stroke-width="1.969"/>
    <line id="Line_7" data-name="Line 7" x2="11.249" transform="translate(109.494 75.009)" fill="none" stroke="#c2eaef" stroke-linecap="round" stroke-linejoin="round" stroke-width="1.969"/>
    <line id="Line_8" data-name="Line 8" x1="7.954" y1="7.954" transform="translate(48.845 34.046)" fill="none" stroke="#c2eaef" stroke-linecap="round" stroke-linejoin="round" stroke-width="1.969"/>
    <line id="Line_9" data-name="Line 9" x2="11.249" transform="translate(31.713 75.407)" fill="none" stroke="#c2eaef" stroke-linecap="round" stroke-linejoin="round" stroke-width="1.969"/>
    <line id="Line_10" data-name="Line 10" x2="11.249" transform="translate(137.451 75.407)" fill="none" stroke="#c2eaef" stroke-linecap="round" stroke-linejoin="round" stroke-width="1.969"/>
    <line id="Line_11" data-name="Line 11" x2="11.249" transform="translate(31.713 75.407)" fill="none" stroke="#c2eaef" stroke-linecap="round" stroke-linejoin="round" stroke-width="1.969"/>
    <line id="Line_12" data-name="Line 12" x2="11.249" transform="translate(137.451 75.407)" fill="none" stroke="#c2eaef" stroke-linecap="round" stroke-linejoin="round" stroke-width="1.969"/>
    <line id="Line_13" data-name="Line 13" y2="11.249" transform="translate(90.207 16.913)" fill="none" stroke="#c2eaef" stroke-linecap="round" stroke-linejoin="round" stroke-width="1.969"/>
    <line id="Line_14" data-name="Line 14" y2="11.249" transform="translate(90.207 122.652)" fill="none" stroke="#c2eaef" stroke-linecap="round" stroke-linejoin="round" stroke-width="1.969"/>
    <path id="Path_8029" data-name="Path 8029" d="M83.64,146.766a1.125,1.125,0,1,1,1.591,0,1.124,1.124,0,0,1-1.591,0" transform="translate(-23.659 -41.134)" fill="#c2eaef"/>
    <path id="Path_8030" data-name="Path 8030" d="M88.083,142.322a1.125,1.125,0,1,1,1.591,0,1.124,1.124,0,0,1-1.591,0" transform="translate(-24.921 -39.872)" fill="#c2eaef"/>
    <path id="Path_8031" data-name="Path 8031" d="M92.527,137.879a1.125,1.125,0,1,1,1.591,0,1.124,1.124,0,0,1-1.591,0" transform="translate(-26.183 -38.61)" fill="#c2eaef"/>
    <path id="Path_8032" data-name="Path 8032" d="M155.847,74.559a1.125,1.125,0,1,1,1.591,0,1.124,1.124,0,0,1-1.591,0" transform="translate(-44.164 -20.628)" fill="#c2eaef"/>
    <path id="Path_8033" data-name="Path 8033" d="M160.29,70.115a1.125,1.125,0,1,1,1.591,0,1.124,1.124,0,0,1-1.591,0" transform="translate(-45.426 -19.366)" fill="#c2eaef"/>
    <path id="Path_8034" data-name="Path 8034" d="M164.734,65.672a1.125,1.125,0,1,1,1.591,0,1.124,1.124,0,0,1-1.591,0" transform="translate(-46.688 -18.105)" fill="#c2eaef"/>
    <path id="Path_8035" data-name="Path 8035" d="M83.64,64.081a1.125,1.125,0,1,1,0,1.591,1.124,1.124,0,0,1,0-1.591" transform="translate(-23.659 -18.104)" fill="#c2eaef"/>
    <path id="Path_8036" data-name="Path 8036" d="M88.083,68.525a1.125,1.125,0,1,1,0,1.591,1.124,1.124,0,0,1,0-1.591" transform="translate(-24.921 -19.366)" fill="#c2eaef"/>
    <path id="Path_8037" data-name="Path 8037" d="M92.527,72.968a1.125,1.125,0,1,1,0,1.591,1.124,1.124,0,0,1,0-1.591" transform="translate(-26.183 -20.628)" fill="#c2eaef"/>
    <path id="Path_8038" data-name="Path 8038" d="M155.847,136.288a1.125,1.125,0,1,1,0,1.591,1.124,1.124,0,0,1,0-1.591" transform="translate(-44.164 -38.61)" fill="#c2eaef"/>
    <path id="Path_8039" data-name="Path 8039" d="M160.29,140.732a1.125,1.125,0,1,1,0,1.591,1.124,1.124,0,0,1,0-1.591" transform="translate(-45.426 -39.872)" fill="#c2eaef"/>
    <path id="Path_8040" data-name="Path 8040" d="M164.734,145.175a1.125,1.125,0,1,1,0,1.591,1.124,1.124,0,0,1,0-1.591" transform="translate(-46.688 -41.134)" fill="#c2eaef"/>
    <path id="Path_8041" data-name="Path 8041" d="M182.99,124.043h31.921l4.469-12.13h6.384" transform="translate(-51.966 -31.781)" fill="none" stroke="#c2eaef" stroke-linecap="round" stroke-linejoin="round" stroke-width="1.969"/>
    <line id="Line_15" data-name="Line 15" x2="47.243" transform="translate(125.278 97.369)" fill="none" stroke="#c2eaef" stroke-linecap="round" stroke-linejoin="round" stroke-width="1.969"/>
    <path id="Path_8042" data-name="Path 8042" d="M237.378,134.721a3.192,3.192,0,1,0,3.192-3.192,3.192,3.192,0,0,0-3.192,3.192" transform="translate(-67.411 -37.352)" fill="#f7fcfd"/>
    <circle id="Ellipse_1" data-name="Ellipse 1" cx="3.192" cy="3.192" r="3.192" transform="translate(169.967 94.177)" fill="none" stroke="#c2eaef" stroke-linecap="round" stroke-linejoin="round" stroke-width="1.969"/>
    <path id="Path_8043" data-name="Path 8043" d="M236.487,110.647a3.192,3.192,0,1,0,3.192-3.192,3.192,3.192,0,0,0-3.192,3.192" transform="translate(-67.159 -30.515)" fill="#f7fcfd"/>
    <circle id="Ellipse_2" data-name="Ellipse 2" cx="3.192" cy="3.192" r="3.192" transform="translate(169.328 76.94)" fill="none" stroke="#c2eaef" stroke-linecap="round" stroke-linejoin="round" stroke-width="1.969"/>
    <path id="Path_8044" data-name="Path 8044" d="M120.163,176.844H20.9l14.106-80h99.263Z" transform="translate(-5.935 -27.503)" fill="#70cdda"/>
    <path id="Path_8045" data-name="Path 8045" d="M155.364,176.844H144.852l14.106-80h10.511Z" transform="translate(-41.136 -27.503)" fill="#5bc6d5"/>
    <path id="Path_8046" data-name="Path 8046" d="M120.163,176.844H20.9l14.106-80h99.263Z" transform="translate(-5.935 -27.503)" fill="none" stroke="#35b9cb" stroke-linecap="round" stroke-linejoin="round" stroke-width="3.937"/>
    <path id="Path_8047" data-name="Path 8047" d="M210.307,184.541H159.533l10.684-60.591h25.153l20.843,27.1Z" transform="translate(-45.305 -35.2)" fill="#70cdda"/>
    <path id="Path_8048" data-name="Path 8048" d="M169.824,221.068H13.277l2.2-12.5H172.027Z" transform="translate(-3.77 -59.231)" fill="#e6f6f8"/>
    <path id="Path_8049" data-name="Path 8049" d="M181.733,134.561h13.393l16.829,20.663-.979,5.549H177.111Z" transform="translate(-50.297 -38.213)" fill="#e6f6f8"/>
    <path id="Path_8050" data-name="Path 8050" d="M205.428,123.95H194.951l22.275,27.1-5.9,33.487h9.045l5.9-33.487Z" transform="translate(-55.363 -35.2)" fill="#5bc6d5"/>
    <line id="Line_16" data-name="Line 16" x2="4.783" transform="translate(130.2 129.757)" fill="none" stroke="#35b9cb" stroke-linecap="round" stroke-linejoin="round" stroke-width="1.969"/>
    <path id="Path_8051" data-name="Path 8051" d="M199.3,134.561H191.8l16.829,20.663-.978,5.549h7.495l.979-5.549Z" transform="translate(-54.469 -38.213)" fill="#c2eaef"/>
    <path id="Path_8052" data-name="Path 8052" d="M210.307,184.541H159.533l10.684-60.591h25.153l20.843,27.1Z" transform="translate(-45.305 -35.2)" fill="none" stroke="#35b9cb" stroke-linecap="round" stroke-linejoin="round" stroke-width="3.937"/>
    <path id="Path_8053" data-name="Path 8053" d="M181.733,134.561h13.393l16.829,20.663-.979,5.549H177.111Z" transform="translate(-50.297 -38.213)" fill="none" stroke="#35b9cb" stroke-linecap="round" stroke-linejoin="round" stroke-width="3.937"/>
    <line id="Line_17" data-name="Line 17" x1="4.033" y2="22.874" transform="translate(155.958 126.467)" fill="none" stroke="#35b9cb" stroke-linecap="round" stroke-linejoin="round" stroke-width="1.969"/>
    <line id="Line_18" data-name="Line 18" x1="3.642" y2="20.658" transform="translate(122.092 128.683)" fill="none" stroke="#35b9cb" stroke-linecap="round" stroke-linejoin="round" stroke-width="1.969"/>
    <path id="Path_8054" data-name="Path 8054" d="M217.412,172.2h-.659a1.89,1.89,0,0,1-1.907-2.316l1.971-11.18a2.883,2.883,0,0,1,2.724-2.316h.659a4.026,4.026,0,0,1,4.063,4.934l-1.048,5.944a6.141,6.141,0,0,1-5.8,4.933" transform="translate(-61.002 -44.411)" fill="#9cdde5"/>
    <path id="Path_8055" data-name="Path 8055" d="M220.534,156.385h-.659a2.616,2.616,0,0,0-1.215.321,4.027,4.027,0,0,1,2.381,4.612l-1.048,5.944a6.208,6.208,0,0,1-4.007,4.613,2,2,0,0,0,1.1.321h.659a6.141,6.141,0,0,0,5.8-4.934l1.048-5.944a4.026,4.026,0,0,0-4.064-4.933" transform="translate(-61.337 -44.411)" fill="#88d6e0"/>
    <path id="Path_8056" data-name="Path 8056" d="M217.412,172.2h-.659a1.89,1.89,0,0,1-1.907-2.316l1.971-11.18a2.883,2.883,0,0,1,2.724-2.316h.659a4.026,4.026,0,0,1,4.063,4.934l-1.048,5.944A6.141,6.141,0,0,1,217.412,172.2Z" transform="translate(-61.002 -44.411)" fill="none" stroke="#35b9cb" stroke-linecap="round" stroke-linejoin="round" stroke-width="3.937"/>
    <path id="Path_8057" data-name="Path 8057" d="M211.178,221.069H158.9l2.065-4.848a12.589,12.589,0,0,1,11.141-7.648h41.275Z" transform="translate(-45.125 -59.231)" fill="#c2eaef"/>
    <path id="Path_8058" data-name="Path 8058" d="M169.824,221.068H13.277l2.2-12.5H172.027Z" transform="translate(-3.77 -59.231)" fill="none" stroke="#35b9cb" stroke-linecap="round" stroke-linejoin="round" stroke-width="3.937"/>
    <path id="Path_8059" data-name="Path 8059" d="M72.353,216.143c-1.839,10.427-11.782,18.881-22.209,18.881s-17.391-8.453-15.552-18.881,11.782-18.881,22.21-18.881,17.39,8.453,15.551,18.881" transform="translate(-9.74 -56.019)" fill="#9cdde5"/>
    <path id="Path_8060" data-name="Path 8060" d="M64.981,221.039a8.135,8.135,0,0,1-7.688,6.535,5.333,5.333,0,0,1-5.383-6.535A8.135,8.135,0,0,1,59.6,214.5a5.333,5.333,0,0,1,5.383,6.535" transform="translate(-14.713 -60.916)" fill="#e6f6f8"/>
    <path id="Path_8061" data-name="Path 8061" d="M61.516,197.262a20.041,20.041,0,0,0-4.115.438c8.16,1.849,13.185,9.4,11.591,18.443S59.709,232.736,50.9,234.586a17.886,17.886,0,0,0,3.96.437c10.427,0,20.371-8.453,22.209-18.881s-5.124-18.881-15.551-18.881" transform="translate(-14.454 -56.019)" fill="#88d6e0"/>
    <path id="Path_8062" data-name="Path 8062" d="M72.353,216.143c-1.839,10.427-11.782,18.881-22.209,18.881s-17.391-8.453-15.552-18.881,11.782-18.881,22.21-18.881S74.192,205.715,72.353,216.143Z" transform="translate(-9.74 -56.019)" fill="none" stroke="#35b9cb" stroke-linecap="round" stroke-linejoin="round" stroke-width="3.937"/>
    <path id="Path_8063" data-name="Path 8063" d="M60.995,214.5a7.062,7.062,0,0,0-2.076.321,5.325,5.325,0,0,1,3.421,6.214,8.23,8.23,0,0,1-5.612,6.214,6.011,6.011,0,0,0,1.962.322,8.135,8.135,0,0,0,7.688-6.536,5.333,5.333,0,0,0-5.383-6.535" transform="translate(-16.11 -60.915)" fill="#c2eaef"/>
    <path id="Path_8064" data-name="Path 8064" d="M64.981,221.039a8.135,8.135,0,0,1-7.688,6.535,5.333,5.333,0,0,1-5.383-6.535A8.135,8.135,0,0,1,59.6,214.5,5.333,5.333,0,0,1,64.981,221.039Z" transform="translate(-14.713 -60.916)" fill="none" stroke="#35b9cb" stroke-linecap="round" stroke-linejoin="round" stroke-width="3.937"/>
    <path id="Path_8065" data-name="Path 8065" d="M206.9,216.143c-1.839,10.427-11.782,18.881-22.209,18.881s-17.391-8.453-15.552-18.881,11.782-18.881,22.21-18.881,17.39,8.453,15.551,18.881" transform="translate(-47.95 -56.019)" fill="#9cdde5"/>
    <path id="Path_8066" data-name="Path 8066" d="M199.531,221.039a8.135,8.135,0,0,1-7.688,6.535,5.333,5.333,0,0,1-5.383-6.535,8.135,8.135,0,0,1,7.688-6.535,5.333,5.333,0,0,1,5.383,6.535" transform="translate(-52.923 -60.916)" fill="#e6f6f8"/>
    <path id="Path_8067" data-name="Path 8067" d="M196.067,197.262a20.041,20.041,0,0,0-4.115.438c8.16,1.849,13.185,9.4,11.591,18.443s-9.282,16.594-18.094,18.443a17.886,17.886,0,0,0,3.96.437c10.427,0,20.371-8.453,22.209-18.881s-5.124-18.881-15.551-18.881" transform="translate(-52.664 -56.019)" fill="#88d6e0"/>
    <path id="Path_8068" data-name="Path 8068" d="M206.9,216.143c-1.839,10.427-11.782,18.881-22.209,18.881s-17.391-8.453-15.552-18.881,11.782-18.881,22.21-18.881S208.742,205.715,206.9,216.143Z" transform="translate(-47.95 -56.019)" fill="none" stroke="#35b9cb" stroke-linecap="round" stroke-linejoin="round" stroke-width="3.937"/>
    <path id="Path_8069" data-name="Path 8069" d="M195.546,214.5a7.062,7.062,0,0,0-2.076.321,5.325,5.325,0,0,1,3.421,6.214,8.23,8.23,0,0,1-5.612,6.214,6.011,6.011,0,0,0,1.962.322,8.136,8.136,0,0,0,7.688-6.536,5.333,5.333,0,0,0-5.383-6.535" transform="translate(-54.32 -60.915)" fill="#c2eaef"/>
    <path id="Path_8070" data-name="Path 8070" d="M199.531,221.039a8.135,8.135,0,0,1-7.688,6.535,5.333,5.333,0,0,1-5.383-6.535,8.135,8.135,0,0,1,7.688-6.535A5.333,5.333,0,0,1,199.531,221.039Z" transform="translate(-52.923 -60.916)" fill="none" stroke="#35b9cb" stroke-linecap="round" stroke-linejoin="round" stroke-width="3.937"/>
    <path id="Path_8071" data-name="Path 8071" d="M57.5,163.033H44.146l18.941-21.477L51.72,120.08H65.076l11.367,21.476Z" transform="translate(-12.537 -34.101)" fill="#e6f6f8"/>
    <path id="Path_8072" data-name="Path 8072" d="M57.5,163.033H44.146l18.941-21.477L51.72,120.08H65.076l11.367,21.476Z" transform="translate(-12.537 -34.101)" fill="none" stroke="#35b9cb" stroke-linecap="round" stroke-linejoin="round" stroke-width="1.969"/>
    <path id="Path_8073" data-name="Path 8073" d="M88.575,163.033H75.219L94.16,141.556,82.793,120.08H96.149l11.367,21.476Z" transform="translate(-21.361 -34.101)" fill="#e6f6f8"/>
    <path id="Path_8074" data-name="Path 8074" d="M88.575,163.033H75.219L94.16,141.556,82.793,120.08H96.149l11.367,21.476Z" transform="translate(-21.361 -34.101)" fill="none" stroke="#35b9cb" stroke-linecap="round" stroke-linejoin="round" stroke-width="1.969"/>
    <path id="Path_8075" data-name="Path 8075" d="M119.648,163.033H106.292l18.941-21.477L113.866,120.08h13.356l11.367,21.476Z" transform="translate(-30.185 -34.101)" fill="#e6f6f8"/>
    <path id="Path_8076" data-name="Path 8076" d="M130.131,120.079H124.11l11.367,21.477-18.941,21.476h6.021L141.5,141.556Z" transform="translate(-33.094 -34.101)" fill="#c2eaef"/>
    <path id="Path_8077" data-name="Path 8077" d="M119.648,163.033H106.292l18.941-21.477L113.866,120.08h13.356l11.367,21.476Z" transform="translate(-30.185 -34.101)" fill="none" stroke="#35b9cb" stroke-linecap="round" stroke-linejoin="round" stroke-width="1.969"/>
    <path id="Path_8078" data-name="Path 8078" d="M115.49,88.007a32.3,32.3,0,1,1-32.3-32.3,32.3,32.3,0,0,1,32.3,32.3" transform="translate(-14.454 -15.821)" fill="#9cdde5"/>
    <path id="Path_8079" data-name="Path 8079" d="M93.713,55.711a32.456,32.456,0,0,0-5.77.524,32.291,32.291,0,0,1,0,63.544,32.294,32.294,0,1,0,5.77-64.068" transform="translate(-24.974 -15.821)" fill="#88d6e0"/>
    <path id="Path_8080" data-name="Path 8080" d="M115.49,88.007a32.3,32.3,0,1,1-32.3-32.3A32.3,32.3,0,0,1,115.49,88.007Z" transform="translate(-14.454 -15.821)" fill="none" stroke="#35b9cb" stroke-linecap="round" stroke-linejoin="round" stroke-width="3.937"/>
    <path id="Path_8081" data-name="Path 8081" d="M95.888,70.186V92.118l13.345,13.792" transform="translate(-27.231 -19.932)" fill="none" stroke="#35b9cb" stroke-linecap="round" stroke-linejoin="round" stroke-width="3.937"/>
    <line id="Line_19" data-name="Line 19" y2="35.237" transform="translate(3.441 99.313)" fill="none" stroke="#c2eaef" stroke-linecap="round" stroke-linejoin="round" stroke-width="1.969"/>
    <circle id="Ellipse_3" data-name="Ellipse 3" cx="2.114" cy="2.114" r="2.114" transform="translate(1.327 134.55)" fill="none" stroke="#c2eaef" stroke-linecap="round" stroke-linejoin="round" stroke-width="1.969"/>
    <line id="Line_20" data-name="Line 20" x1="4.933" transform="translate(7.669 106.36)" fill="none" stroke="#e6f6f8" stroke-linecap="round" stroke-linejoin="round" stroke-width="1.969"/>
    <line id="Line_21" data-name="Line 21" x1="9.161" transform="translate(7.669 110.589)" fill="none" stroke="#e6f6f8" stroke-linecap="round" stroke-linejoin="round" stroke-width="1.969"/>
    <line id="Line_22" data-name="Line 22" x1="4.933" transform="translate(7.669 114.817)" fill="none" stroke="#e6f6f8" stroke-linecap="round" stroke-linejoin="round" stroke-width="1.969"/>
    <line id="Line_23" data-name="Line 23" x1="6.778" transform="translate(7.669 119.046)" fill="none" stroke="#e6f6f8" stroke-linecap="round" stroke-linejoin="round" stroke-width="1.969"/>
    <line id="Line_24" data-name="Line 24" x1="4.933" transform="translate(7.669 123.274)" fill="none" stroke="#c2eaef" stroke-linecap="round" stroke-linejoin="round" stroke-width="1.969"/>
    <line id="Line_25" data-name="Line 25" x1="4.581" transform="translate(7.669 127.503)" fill="none" stroke="#c2eaef" stroke-linecap="round" stroke-linejoin="round" stroke-width="1.969"/>
    <line id="Line_26" data-name="Line 26" x1="4.933" transform="translate(7.669 131.731)" fill="none" stroke="#c2eaef" stroke-linecap="round" stroke-linejoin="round" stroke-width="1.969"/>
    <path id="Path_8082" data-name="Path 8082" d="M37.337,18.669A18.669,18.669,0,1,1,18.669,0,18.668,18.668,0,0,1,37.337,18.669" fill="#e6f6f8"/>
    <path id="Path_8083" data-name="Path 8083" d="M47.478,20.354a18.692,18.692,0,0,1-.7,5.088l-.536.054c-.044,0-.088.008-.13.009l-.453.021a3.137,3.137,0,0,0-2.747,1.883l-.116.264a2.474,2.474,0,0,1-2.265,1.48H38.6a.891.891,0,0,1-.89-.8l-.077-.77a3.12,3.12,0,0,0-1.422-2.326,1.1,1.1,0,0,1-.506-.927v-.771a1.514,1.514,0,0,1,.511-1.132l3.289-2.9a3.243,3.243,0,0,0,.953-3.362,3.3,3.3,0,0,0-2.755-2.318l-.332-.042a1.622,1.622,0,0,1-1.024-.541A.918.918,0,0,1,36.24,12.2l.689-1.178A23.755,23.755,0,0,1,39.923,6.97l.743-1.036a18.627,18.627,0,0,1,6.812,14.42" transform="translate(-10.141 -1.685)" fill="#c2eaef"/>
    <path id="Path_8084" data-name="Path 8084" d="M19.584,24.8a.647.647,0,0,1,.147.527.678.678,0,0,1-.263.426l-1.91,1.466a3.1,3.1,0,0,0-1.075,1.548l-.643,2.082a1.3,1.3,0,0,1-.243.452l-.625.75A3.571,3.571,0,0,0,14.147,34a.991.991,0,0,1-.605.826.5.5,0,0,1-.506-.071.517.517,0,0,1-.181-.322l-.586-3.516a2.74,2.74,0,0,0-.521-1.2L9.591,26.891a2.523,2.523,0,0,1-.424-.852l-.711-2.567A2.7,2.7,0,0,0,6.573,21.6l-.155-.043a1.994,1.994,0,0,1-.84-.47l-1.327-1.25a2.987,2.987,0,0,1-.536-.673A2.953,2.953,0,0,0,.592,17.742l-.255.05-.226-.021a18.675,18.675,0,0,1,9.927-14.8l1.352,1.017,1.068.8a5.819,5.819,0,0,0,.559.371,5.854,5.854,0,0,1,1.854,1.718l1.267,1.827a1.985,1.985,0,0,1-.059,2.35l-.588.762a1.356,1.356,0,0,1-1.241.516l-.667-.086A2.409,2.409,0,0,0,11.2,13.429a1.372,1.372,0,0,1-1.363.653l-1.524-.194a2.492,2.492,0,0,0-2.386,1.078,2.212,2.212,0,0,0-.037,2.422L6.9,18.994a2.059,2.059,0,0,0,2.709.712l1.046-.561a1.933,1.933,0,0,1,1.9.047l1.986,1.192a.494.494,0,0,0,.263.069,2.811,2.811,0,0,1,2.32,1.222l.972,1.355q.1.143.216.277Z" transform="translate(-0.032 -0.844)" fill="#c2eaef"/>
    <line id="Line_27" data-name="Line 27" x2="6.342" transform="translate(11.276 74.702)" fill="#f7fcfd"/>
    <line id="Line_28" data-name="Line 28" x2="6.342" transform="translate(11.276 74.702)" fill="none" stroke="#c2eaef" stroke-linecap="round" stroke-linejoin="round" stroke-width="1.969"/>
    <line id="Line_29" data-name="Line 29" x2="18.324" transform="translate(11.276 45.103)" fill="#f7fcfd"/>
    <line id="Line_30" data-name="Line 30" x2="18.324" transform="translate(11.276 45.103)" fill="none" stroke="#c2eaef" stroke-linecap="round" stroke-linejoin="round" stroke-width="1.969"/>
    <path id="Path_8085" data-name="Path 8085" d="M15.748,62.992H22.09v44.4H15.748" transform="translate(-4.472 -17.889)" fill="none" stroke="#c2eaef" stroke-linecap="round" stroke-linejoin="round" stroke-width="1.969"/>
    <path id="Path_8086" data-name="Path 8086" d="M9.842,61.595a3.524,3.524,0,1,0,3.524-3.524,3.523,3.523,0,0,0-3.524,3.524" transform="translate(-2.795 -16.491)" fill="#f7fcfd"/>
    <path id="Path_8087" data-name="Path 8087" d="M9.842,61.595a3.524,3.524,0,1,0,3.524-3.524A3.523,3.523,0,0,0,9.842,61.595Z" transform="translate(-2.795 -16.491)" fill="none" stroke="#c2eaef" stroke-linecap="round" stroke-linejoin="round" stroke-width="1.969"/>
    <path id="Path_8088" data-name="Path 8088" d="M9.842,102.933a3.524,3.524,0,1,0,3.524-3.524,3.523,3.523,0,0,0-3.524,3.524" transform="translate(-2.795 -28.231)" fill="#f7fcfd"/>
    <path id="Path_8089" data-name="Path 8089" d="M9.842,102.933a3.524,3.524,0,1,0,3.524-3.524A3.523,3.523,0,0,0,9.842,102.933Z" transform="translate(-2.795 -28.231)" fill="none" stroke="#c2eaef" stroke-linecap="round" stroke-linejoin="round" stroke-width="1.969"/>
    <line id="Line_31" data-name="Line 31" x2="6.342" transform="translate(11.276 59.903)" fill="#f7fcfd"/>
    <line id="Line_32" data-name="Line 32" x2="6.342" transform="translate(11.276 59.903)" fill="none" stroke="#c2eaef" stroke-linecap="round" stroke-linejoin="round" stroke-width="1.969"/>
    <path id="Path_8090" data-name="Path 8090" d="M9.842,82.264a3.524,3.524,0,1,0,3.524-3.524,3.523,3.523,0,0,0-3.524,3.524" transform="translate(-2.795 -22.361)" fill="#f7fcfd"/>
    <path id="Path_8091" data-name="Path 8091" d="M9.842,82.264a3.524,3.524,0,1,0,3.524-3.524A3.523,3.523,0,0,0,9.842,82.264Z" transform="translate(-2.795 -22.361)" fill="none" stroke="#c2eaef" stroke-linecap="round" stroke-linejoin="round" stroke-width="1.969"/>
    <path id="Path_8092" data-name="Path 8092" d="M9.842,123.6a3.524,3.524,0,1,0,3.524-3.524A3.523,3.523,0,0,0,9.842,123.6" transform="translate(-2.795 -34.1)" fill="#f7fcfd"/>
    <path id="Path_8093" data-name="Path 8093" d="M9.842,123.6a3.524,3.524,0,1,0,3.524-3.524A3.523,3.523,0,0,0,9.842,123.6Z" transform="translate(-2.795 -34.1)" fill="none" stroke="#c2eaef" stroke-linecap="round" stroke-linejoin="round" stroke-width="1.969"/>
    <path id="Path_8094" data-name="Path 8094" d="M36.417,61.595a3.524,3.524,0,1,0,3.524-3.524,3.523,3.523,0,0,0-3.524,3.524" transform="translate(-10.342 -16.491)" fill="#f7fcfd"/>
    <path id="Path_8095" data-name="Path 8095" d="M36.417,61.595a3.524,3.524,0,1,0,3.524-3.524A3.523,3.523,0,0,0,36.417,61.595Z" transform="translate(-10.342 -16.491)" fill="none" stroke="#c2eaef" stroke-linecap="round" stroke-linejoin="round" stroke-width="1.969"/>
    <line id="Line_33" data-name="Line 33" y1="9.448" transform="translate(150.814 57.7)" fill="none" stroke="#c2eaef" stroke-linecap="round" stroke-linejoin="round" stroke-width="1.969"/>
    <line id="Line_34" data-name="Line 34" y1="15.989" transform="translate(158.332 51.16)" fill="none" stroke="#c2eaef" stroke-linecap="round" stroke-linejoin="round" stroke-width="1.969"/>
    <line id="Line_35" data-name="Line 35" y1="9.448" transform="translate(165.849 57.7)" fill="none" stroke="#c2eaef" stroke-linecap="round" stroke-linejoin="round" stroke-width="1.969"/>
    <line id="Line_36" data-name="Line 36" y1="15.989" transform="translate(173.366 51.16)" fill="none" stroke="#c2eaef" stroke-linecap="round" stroke-linejoin="round" stroke-width="1.969"/>
    <path id="Path_8096" data-name="Path 8096" d="M81.693,7.874h18.324V20.559" transform="translate(-23.199 -2.236)" fill="none" stroke="#e6f6f8" stroke-linecap="round" stroke-linejoin="round" stroke-width="1.969"/>
    <path id="Path_8097" data-name="Path 8097" d="M66.929,23.622h14.8v9.867" transform="translate(-19.007 -6.708)" fill="none" stroke="#e6f6f8" stroke-linecap="round" stroke-linejoin="round" stroke-width="1.969"/>
    <path id="Path_8098" data-name="Path 8098" d="M73.819,6.477a3.524,3.524,0,1,0,3.524-3.524,3.523,3.523,0,0,0-3.524,3.524" transform="translate(-20.963 -0.839)" fill="#f7fcfd"/>
    <path id="Path_8099" data-name="Path 8099" d="M73.819,6.477a3.524,3.524,0,1,0,3.524-3.524A3.523,3.523,0,0,0,73.819,6.477Z" transform="translate(-20.963 -0.839)" fill="none" stroke="#c2eaef" stroke-linecap="round" stroke-linejoin="round" stroke-width="1.969"/>
    <path id="Path_8100" data-name="Path 8100" d="M62.992,22.225A3.524,3.524,0,1,0,66.516,18.7a3.523,3.523,0,0,0-3.524,3.524" transform="translate(-17.889 -5.311)" fill="#f7fcfd"/>
    <path id="Path_8101" data-name="Path 8101" d="M62.992,22.225A3.524,3.524,0,1,0,66.516,18.7,3.523,3.523,0,0,0,62.992,22.225Z" transform="translate(-17.889 -5.311)" fill="none" stroke="#c2eaef" stroke-linecap="round" stroke-linejoin="round" stroke-width="1.969"/>
    <path id="Path_8102" data-name="Path 8102" d="M163.469,13.511c-2.876,0-2.876-5.637-5.752-5.637s-2.877,5.637-5.754,5.637-2.878-5.637-5.756-5.637-2.877,5.637-5.754,5.637-2.879-5.637-5.758-5.637-2.878,5.637-5.757,5.637" transform="translate(-36.616 -2.236)" fill="none" stroke="#e6f6f8" stroke-linecap="round" stroke-linejoin="round" stroke-width="1.969"/>
    <path id="Path_8103" data-name="Path 8103" d="M93.029,236.73c3.931,0,3.931,5.638,7.861,5.638s3.932-5.638,7.864-5.638,3.933,5.638,7.866,5.638,3.932-5.638,7.863-5.638,3.935,5.638,7.869,5.638,3.935-5.638,7.869-5.638" transform="translate(-26.419 -67.227)" fill="none" stroke="#c2eaef" stroke-linecap="round" stroke-linejoin="round" stroke-width="1.969"/>
    <path id="Path_8104" data-name="Path 8104" d="M233.045,23.746A21.886,21.886,0,1,1,211.16,1.86a21.886,21.886,0,0,1,21.886,21.886" transform="translate(-53.751 -0.528)" fill="#e6f6f8"/>
    <line id="Line_37" data-name="Line 37" y2="1.679" transform="translate(157.409 5)" fill="none" stroke="#c2eaef" stroke-linecap="round" stroke-linejoin="round" stroke-width="1.969"/>
    <line id="Line_38" data-name="Line 38" y2="1.679" transform="translate(157.409 39.756)" fill="none" stroke="#c2eaef" stroke-linecap="round" stroke-linejoin="round" stroke-width="1.969"/>
    <line id="Line_39" data-name="Line 39" x1="1.679" transform="translate(173.947 23.217)" fill="none" stroke="#c2eaef" stroke-linecap="round" stroke-linejoin="round" stroke-width="1.969"/>
    <line id="Line_40" data-name="Line 40" x1="1.679" transform="translate(139.192 23.217)" fill="none" stroke="#c2eaef" stroke-linecap="round" stroke-linejoin="round" stroke-width="1.969"/>
    <line id="Line_41" data-name="Line 41" x2="5.852" y2="5.852" transform="translate(154.483 20.292)" fill="none" stroke="#c2eaef" stroke-linecap="round" stroke-linejoin="round" stroke-width="1.969"/>
    <path id="Path_8105" data-name="Path 8105" d="M203.51,39.481l8.767-14.619L226.9,16.1l-8.767,14.619Z" transform="translate(-57.794 -4.571)" fill="none" stroke="#c2eaef" stroke-linecap="round" stroke-linejoin="round" stroke-width="1.969"/>
    <circle id="Ellipse_4" data-name="Ellipse 4" cx="21.886" cy="21.886" r="21.886" transform="matrix(0.23, -0.973, 0.973, 0.23, 131.081, 39.489)" fill="none" stroke="#c2eaef" stroke-linecap="round" stroke-linejoin="round" stroke-width="1.969"/>
  </g>
</svg>
