<svg id="Group_40" data-name="Group 40" xmlns="http://www.w3.org/2000/svg" xmlns:xlink="http://www.w3.org/1999/xlink" viewBox="0 0 180 180"><defs><style>.cls-1,.cls-13,.cls-14,.cls-15,.cls-16,.cls-5,.cls-8{fill:none;}.cls-2{clip-path:url(#clip-path);}.cls-3{fill:#e6f6f8;}.cls-4{fill:#c2eaef;}.cls-5,.cls-8{stroke:#c2eaef;}.cls-13,.cls-14,.cls-15,.cls-16,.cls-5,.cls-8{stroke-linecap:round;stroke-linejoin:round;}.cls-14,.cls-15,.cls-16,.cls-5,.cls-8{stroke-width:1.97px;}.cls-6{clip-path:url(#clip-path-2);}.cls-7{fill:#f7fcfd;}.cls-8{stroke-dasharray:1.01 0.76 2.54 1.01;}.cls-9{fill:#5bc6d5;}.cls-10{fill:#70cdda;}.cls-11{fill:#9cdde5;}.cls-12{fill:#88d6e0;}.cls-13,.cls-14{stroke:#35b9cb;}.cls-13{stroke-width:3.93px;}.cls-15{stroke:#5bc6d5;}.cls-16{stroke:#88d6e0;}</style><clipPath id="clip-path"><rect class="cls-1" x="0.5" y="-44.33" width="179" height="224.33"/></clipPath><clipPath id="clip-path-2"><rect class="cls-1" x="148.12" y="7.78" width="25.5" height="24.36"/></clipPath></defs><title>icon-section-02 (1)</title><g id="Group_35" data-name="Group 35"><g class="cls-2"><g id="Group_34" data-name="Group 34"><path id="Path_8204" data-name="Path 8204" class="cls-3" d="M5.07,5.57h0A15.62,15.62,0,0,1,30,23.68L20.31,42.86a4.71,4.71,0,0,1-8.39,0L2.19,23.68A15.63,15.63,0,0,1,5.07,5.57"/><path id="Path_8205" data-name="Path 8205" class="cls-4" d="M23.6,15.73a7.49,7.49,0,1,1-7.49-7.48h0a7.48,7.48,0,0,1,7.49,7.48h0"/><rect id="Rectangle_66" data-name="Rectangle 66" class="cls-3" x="142.93" y="1.7" width="35.87" height="36.52"/><rect id="Rectangle_67" data-name="Rectangle 67" class="cls-5" x="142.93" y="1.7" width="35.87" height="36.52"/><rect id="Rectangle_68" data-name="Rectangle 68" class="cls-5" x="142.93" y="1.7" width="35.87" height="36.52"/><path id="Path_8206" data-name="Path 8206" class="cls-4" d="M146.81,36.26h0A1.17,1.17,0,1,1,148,35.09a1.17,1.17,0,0,1-1.17,1.17h0"/><path id="Path_8207" data-name="Path 8207" class="cls-4" d="M174.92,36.26h0a1.17,1.17,0,1,1,1.18-1.17,1.18,1.18,0,0,1-1.18,1.17h0"/><path id="Path_8208" data-name="Path 8208" class="cls-4" d="M146.81,6h0a1.17,1.17,0,0,1,0-2.34,1.17,1.17,0,0,1,0,2.34h0"/><path id="Path_8209" data-name="Path 8209" class="cls-4" d="M174.92,6h0a1.17,1.17,0,1,1,1.18-1.17A1.17,1.17,0,0,1,174.92,6h0"/></g></g></g><g id="Group_37" data-name="Group 37"><g class="cls-6"><g id="Group_36" data-name="Group 36"><line id="Line_85" data-name="Line 85" class="cls-5" x1="178.61" y1="-13.23" x2="143.12" y2="7.38"/><line id="Line_86" data-name="Line 86" class="cls-5" x1="178.61" y1="-5.63" x2="143.12" y2="14.98"/><line id="Line_87" data-name="Line 87" class="cls-5" x1="178.61" y1="1.97" x2="143.12" y2="22.58"/><line id="Line_88" data-name="Line 88" class="cls-5" x1="178.61" y1="9.57" x2="143.12" y2="30.18"/><line id="Line_89" data-name="Line 89" class="cls-5" x1="178.61" y1="17.17" x2="143.12" y2="37.78"/><line id="Line_90" data-name="Line 90" class="cls-5" x1="178.61" y1="24.77" x2="143.12" y2="45.38"/></g></g></g><g id="Group_39" data-name="Group 39"><g class="cls-2"><g id="Group_38" data-name="Group 38"><rect id="Rectangle_71" data-name="Rectangle 71" class="cls-5" x="148.12" y="7.78" width="25.5" height="24.36"/><rect id="Rectangle_72" data-name="Rectangle 72" class="cls-3" x="161.18" y="7.78" width="12.44" height="12.17"/><rect id="Rectangle_73" data-name="Rectangle 73" class="cls-5" x="161.18" y="7.78" width="12.44" height="12.17"/><line id="Line_91" data-name="Line 91" class="cls-5" x1="163.77" y1="10.98" x2="171.02" y2="10.98"/><line id="Line_92" data-name="Line 92" class="cls-5" x1="163.77" y1="14.05" x2="171.02" y2="14.05"/><line id="Line_93" data-name="Line 93" class="cls-5" x1="163.77" y1="17.12" x2="168.22" y2="17.12"/><path id="Path_8210" data-name="Path 8210" class="cls-3" d="M157.15,162.42v2.69a.93.93,0,0,0,.93.93,1,1,0,0,0,.48-.12l2.19-1.29a.91.91,0,0,0,.46-.8v-1.4a.93.93,0,0,0-.93-.94h-2.2a.94.94,0,0,0-.93.94"/><path id="Path_8211" data-name="Path 8211" class="cls-3" d="M170.7,162.42v1.41a.94.94,0,0,0,.45.8l2.2,1.31a.94.94,0,0,0,1.28-.32,1,1,0,0,0,.13-.48v-2.72a.93.93,0,0,0-.93-.93h-2.2a.93.93,0,0,0-.93.93"/><path id="Path_8212" data-name="Path 8212" class="cls-4" d="M167.26,161l.3,7.6,11.94,2.79v-2.11a2.42,2.42,0,0,0-1.22-2.09Z"/><path id="Path_8213" data-name="Path 8213" class="cls-4" d="M165.66,177.93l5.94,1.32v-1.43a1.45,1.45,0,0,0-.37-1l-4-4.54Z"/><path id="Path_8214" data-name="Path 8214" class="cls-4" d="M160.09,177.82v1.43L166,178l-1.59-5.66-4,4.54a1.45,1.45,0,0,0-.37,1"/><path id="Path_8215" data-name="Path 8215" class="cls-4" d="M152.41,169.27v2.11l11.94-2.8.3-7.6-11,6.2a2.39,2.39,0,0,0-1.22,2.08"/><path id="Path_8216" data-name="Path 8216" class="cls-3" d="M167.48,154.57a1.55,1.55,0,0,0-1.44-1h-.23a1.57,1.57,0,0,0-1.45,1l-.06.16a13.49,13.49,0,0,0-1.05,5v12a13.67,13.67,0,0,0,1.06,5l.66,1.5h1.91l.64-1.48v0a13.55,13.55,0,0,0,1.13-5v-12a13.3,13.3,0,0,0-1.18-5.12"/><path id="Path_8217" data-name="Path 8217" class="cls-4" d="M166,180a.76.76,0,0,1-.75-.75h0v-6.09a.75.75,0,0,1,.73-.77.74.74,0,0,1,.77.72v6.14a.75.75,0,0,1-.75.75h0"/><path id="Path_8218" data-name="Path 8218" class="cls-4" d="M167.55,158.63l-1.59-.46-1.52.46v-1.46l1.55-.46,1.56.46Z"/><path id="Path_8219" data-name="Path 8219" class="cls-3" d="M23.82,104.7A10.39,10.39,0,1,1,13.43,94.31h0A10.39,10.39,0,0,1,23.82,104.7"/><line id="Line_94" data-name="Line 94" class="cls-5" x1="13.43" y1="96.05" x2="13.43" y2="96.85"/><line id="Line_95" data-name="Line 95" class="cls-5" x1="13.43" y1="112.55" x2="13.43" y2="113.35"/><line id="Line_96" data-name="Line 96" class="cls-5" x1="22.08" y1="104.7" x2="21.28" y2="104.7"/><line id="Line_97" data-name="Line 97" class="cls-5" x1="5.58" y1="104.7" x2="4.78" y2="104.7"/><line id="Line_98" data-name="Line 98" class="cls-1" x1="12.04" y1="103.31" x2="14.82" y2="106.09"/><path id="Path_8220" data-name="Path 8220" class="cls-4" d="M7.88,110.25,12,103.31,19,99.15l-4.16,6.94Z"/><path id="Path_8221" data-name="Path 8221" class="cls-4" d="M156.18,50.38h-2v-2h-2v2h-2v2h2v2h-4v-4h-4v-8h8v4h2v-2h2v2h2v6h-2Zm-10-6v4h4v-4Zm10-2h2v2h-2Zm-4,8h2v2h-2Zm-8,2h2v2h-2Zm2,2h2v2h-2Zm10,0h2v2h-2Zm-4,0h2v2h-2Zm-5-9h2v2h-2Z"/><line id="Line_99" data-name="Line 99" class="cls-5" x1="161.83" y1="44.49" x2="175.94" y2="44.49"/><line id="Line_100" data-name="Line 100" class="cls-5" x1="161.83" y1="49.38" x2="175.94" y2="49.38"/><line id="Line_101" data-name="Line 101" class="cls-5" x1="161.83" y1="54.28" x2="169.95" y2="54.28"/><path id="Path_8222" data-name="Path 8222" class="cls-4" d="M156.18,66.7h-2v-2h-2v2h-2v2h2v2h-4v-4h-4v-8h8v4h2v-2h2v2h2v6h-2Zm-10-6v4h4v-4Zm10-2h2v2h-2Zm-4,8h2v2h-2Zm-8,2h2v2h-2Zm2,2h2v2h-2Zm10,0h2v2h-2Zm-4,0h2v2h-2Zm-5-9h2v2h-2Z"/><line id="Line_102" data-name="Line 102" class="cls-5" x1="161.83" y1="60.81" x2="175.94" y2="60.81"/><line id="Line_103" data-name="Line 103" class="cls-5" x1="161.83" y1="65.71" x2="175.94" y2="65.71"/><line id="Line_104" data-name="Line 104" class="cls-5" x1="161.83" y1="70.61" x2="169.95" y2="70.61"/><line id="Line_106" data-name="Line 106" class="cls-5" x1="171.5" y1="114.21" x2="165.21" y2="114.21"/><line id="Line_108" data-name="Line 108" class="cls-5" x1="171.5" y1="143.58" x2="137.94" y2="143.58"/><path id="Path_8223" data-name="Path 8223" class="cls-5" d="M171.5,143.58h-6.29V99.53h6.29"/><path id="Path_8224" data-name="Path 8224" class="cls-7" d="M175.69,143.58a3.5,3.5,0,1,0-3.49,3.49h0a3.49,3.49,0,0,0,3.49-3.49"/><path id="Path_8225" data-name="Path 8225" class="cls-5" d="M175.69,143.58a3.5,3.5,0,1,0-3.49,3.49h0A3.49,3.49,0,0,0,175.69,143.58Z"/><path id="Path_8226" data-name="Path 8226" class="cls-7" d="M175.69,114.21a3.5,3.5,0,1,0-3.49,3.5,3.5,3.5,0,0,0,3.49-3.5h0"/><path id="Path_8227" data-name="Path 8227" class="cls-5" d="M175.69,114.21a3.5,3.5,0,1,0-3.49,3.5,3.5,3.5,0,0,0,3.49-3.5Z"/><line id="Line_110" data-name="Line 110" class="cls-5" x1="171.5" y1="128.89" x2="165.21" y2="128.89"/><path id="Path_8228" data-name="Path 8228" class="cls-7" d="M175.69,128.89a3.5,3.5,0,1,0-3.49,3.5,3.49,3.49,0,0,0,3.49-3.5h0"/><path id="Path_8229" data-name="Path 8229" class="cls-5" d="M175.69,128.89a3.5,3.5,0,1,0-3.49,3.5,3.49,3.49,0,0,0,3.49-3.5Z"/><path id="Path_8230" data-name="Path 8230" class="cls-7" d="M175.69,99.53A3.5,3.5,0,1,0,172.2,103a3.5,3.5,0,0,0,3.49-3.49h0"/><path id="Path_8231" data-name="Path 8231" class="cls-5" d="M175.69,99.53A3.5,3.5,0,1,0,172.2,103a3.5,3.5,0,0,0,3.49-3.49Z"/><path id="Path_8232" data-name="Path 8232" class="cls-7" d="M141.43,143.58a3.5,3.5,0,1,0-3.49,3.49h0a3.49,3.49,0,0,0,3.49-3.49"/><path id="Path_8233" data-name="Path 8233" class="cls-5" d="M141.43,143.58a3.5,3.5,0,1,0-3.49,3.49h0A3.49,3.49,0,0,0,141.43,143.58Z"/><path id="Path_8234" data-name="Path 8234" class="cls-3" d="M42.49,107.43H95.6l26.55-46-26.55-46H42.49l-26.55,46Z"/><path id="Path_8235" data-name="Path 8235" class="cls-5" d="M100.69,116.24,121,81l11.3-19.57"/><line id="Line_111" data-name="Line 111" class="cls-5" x1="5.77" y1="61.44" x2="37.41" y2="116.24"/><line id="Line_112" data-name="Line 112" class="cls-5" x1="100.69" y1="6.64" x2="37.41" y2="6.64"/><line id="Line_113" data-name="Line 113" class="cls-5" x1="137.55" y1="61.44" x2="127.76" y2="61.44"/><line id="Line_114" data-name="Line 114" class="cls-5" x1="10.98" y1="61.44" x2="1.2" y2="61.44"/><line id="Line_115" data-name="Line 115" class="cls-5" x1="103.46" y1="2.4" x2="98.57" y2="10.87"/><line id="Line_116" data-name="Line 116" class="cls-5" x1="40.18" y1="112" x2="35.29" y2="120.48"/><line id="Line_117" data-name="Line 117" class="cls-5" x1="103.46" y1="120.48" x2="98.57" y2="112"/><line id="Line_118" data-name="Line 118" class="cls-5" x1="40.18" y1="10.87" x2="35.29" y2="2.4"/><line id="Line_119" data-name="Line 119" class="cls-5" x1="103.62" y1="61.44" x2="101.53" y2="61.44"/><line id="Line_120" data-name="Line 120" class="cls-8" x1="99.72" y1="61.44" x2="96.3" y2="61.44"/><line id="Line_121" data-name="Line 121" class="cls-5" x1="95.93" y1="61.44" x2="93.84" y2="61.44"/><line id="Line_122" data-name="Line 122" class="cls-5" x1="34.47" y1="61.44" x2="36.57" y2="61.44"/><line id="Line_123" data-name="Line 123" class="cls-8" x1="38.37" y1="61.44" x2="41.8" y2="61.44"/><line id="Line_124" data-name="Line 124" class="cls-5" x1="42.16" y1="61.44" x2="44.26" y2="61.44"/><line id="Line_125" data-name="Line 125" class="cls-5" x1="51.76" y1="91.38" x2="52.81" y2="89.57"/><line id="Line_126" data-name="Line 126" class="cls-8" x1="53.71" y1="88" x2="55.42" y2="85.04"/><line id="Line_127" data-name="Line 127" class="cls-5" x1="55.6" y1="84.72" x2="56.65" y2="82.91"/><line id="Line_128" data-name="Line 128" class="cls-5" x1="86.34" y1="31.49" x2="85.29" y2="33.31"/><line id="Line_129" data-name="Line 129" class="cls-8" x1="84.38" y1="34.87" x2="82.67" y2="37.84"/><line id="Line_130" data-name="Line 130" class="cls-5" x1="82.49" y1="38.15" x2="81.44" y2="39.97"/><line id="Line_131" data-name="Line 131" class="cls-5" x1="51.76" y1="31.49" x2="52.81" y2="33.31"/><line id="Line_132" data-name="Line 132" class="cls-8" x1="53.71" y1="34.87" x2="55.42" y2="37.84"/><line id="Line_133" data-name="Line 133" class="cls-5" x1="55.6" y1="38.15" x2="56.65" y2="39.97"/><line id="Line_134" data-name="Line 134" class="cls-5" x1="86.34" y1="91.38" x2="85.29" y2="89.57"/><line id="Line_135" data-name="Line 135" class="cls-8" x1="84.38" y1="88" x2="82.67" y2="85.04"/><line id="Line_136" data-name="Line 136" class="cls-5" x1="82.49" y1="84.72" x2="81.44" y2="82.91"/><path id="Path_8236" data-name="Path 8236" class="cls-5" d="M94.69,35.79l-5.42-9.38H78.43"/><path id="Path_8237" data-name="Path 8237" class="cls-5" d="M104.08,70.82l5.41-9.38-5.41-9.39"/><path id="Path_8238" data-name="Path 8238" class="cls-5" d="M78.43,96.47H89.27l5.42-9.39"/><path id="Path_8239" data-name="Path 8239" class="cls-5" d="M43.4,87.08l5.42,9.39H59.66"/><path id="Path_8240" data-name="Path 8240" class="cls-5" d="M59.66,26.41H48.82L43.4,35.79"/><path id="Path_8241" data-name="Path 8241" class="cls-5" d="M34,52.05,28.6,61.44,34,70.82"/><path id="Path_8242" data-name="Path 8242" class="cls-5" d="M82.61,84.92,96.17,61.44,82.61,38"/><path id="Path_8243" data-name="Path 8243" class="cls-5" d="M55.49,38,41.92,61.44,55.49,84.92"/><line id="Line_138" data-name="Line 138" class="cls-5" x1="7.44" y1="141.54" x2="13.73" y2="141.54"/><line id="Line_140" data-name="Line 140" class="cls-5" x1="7.44" y1="170.91" x2="43.1" y2="170.91"/><path id="Path_8244" data-name="Path 8244" class="cls-5" d="M7.44,170.91h6.29v-44H7.44"/><path id="Path_8245" data-name="Path 8245" class="cls-7" d="M3.24,170.91a3.5,3.5,0,1,1,3.5,3.5h0a3.5,3.5,0,0,1-3.5-3.5"/><path id="Path_8246" data-name="Path 8246" class="cls-5" d="M3.24,170.91a3.5,3.5,0,1,1,3.5,3.5h0A3.5,3.5,0,0,1,3.24,170.91Z"/><path id="Path_8247" data-name="Path 8247" class="cls-7" d="M3.24,141.54a3.5,3.5,0,1,1,3.5,3.5h0a3.5,3.5,0,0,1-3.5-3.5"/><path id="Path_8248" data-name="Path 8248" class="cls-5" d="M3.24,141.54a3.5,3.5,0,1,1,3.5,3.5h0A3.5,3.5,0,0,1,3.24,141.54Z"/><line id="Line_142" data-name="Line 142" class="cls-5" x1="7.44" y1="156.23" x2="13.73" y2="156.23"/><path id="Path_8249" data-name="Path 8249" class="cls-7" d="M3.24,156.23a3.5,3.5,0,1,1,3.5,3.49h0a3.5,3.5,0,0,1-3.5-3.49"/><path id="Path_8250" data-name="Path 8250" class="cls-5" d="M3.24,156.23a3.5,3.5,0,1,1,3.5,3.49h0A3.5,3.5,0,0,1,3.24,156.23Z"/><path id="Path_8251" data-name="Path 8251" class="cls-7" d="M3.24,126.86a3.5,3.5,0,1,1,3.5,3.5,3.5,3.5,0,0,1-3.5-3.5h0"/><path id="Path_8252" data-name="Path 8252" class="cls-5" d="M3.24,126.86a3.5,3.5,0,1,1,3.5,3.5,3.5,3.5,0,0,1-3.5-3.5Z"/><path id="Path_8253" data-name="Path 8253" class="cls-7" d="M39.6,170.91a3.5,3.5,0,1,1,3.5,3.5h0a3.5,3.5,0,0,1-3.5-3.5"/><path id="Path_8254" data-name="Path 8254" class="cls-5" d="M39.6,170.91a3.5,3.5,0,1,1,3.5,3.5h0A3.5,3.5,0,0,1,39.6,170.91Z"/><path id="Path_8255" data-name="Path 8255" class="cls-5" d="M104,14.28h19.93a4.55,4.55,0,1,1,0,9.1h-8.38A4.54,4.54,0,0,0,111.47,30l5.24,10.49A4.54,4.54,0,0,0,120.77,43h8.38"/><path id="Path_8256" data-name="Path 8256" class="cls-3" d="M154.23,124l-1.58-4.74-4.73-1.58,4.73-1.58,1.58-4.73,1.58,4.73,4.74,1.58-4.74,1.58Z"/><path id="Path_8257" data-name="Path 8257" class="cls-3" d="M154.23,139.42l-1.58-4.74-4.73-1.58,4.73-1.58,1.58-4.73,1.58,4.73,4.74,1.58-4.74,1.58Z"/><path id="Path_8258" data-name="Path 8258" class="cls-9" d="M100.54,178.35,43.3,151.51V83.84l57.25,26.84Z"/><path id="Path_8259" data-name="Path 8259" class="cls-10" d="M100.55,178.35l57.24-26.84V83.84l-57.24,26.84Z"/><path id="Path_8260" data-name="Path 8260" class="cls-9" d="M149.14,87.89v67.67l8.65-4.05V83.84Z"/><path id="Path_8261" data-name="Path 8261" class="cls-10" d="M100.54,56.71,43.3,83.84l57.24,26.84,57.25-26.84Z"/><path id="Path_8262" data-name="Path 8262" class="cls-11" d="M66.49,94.71,77.4,99.83l57.37-26.9-11.15-5.28Z"/><path id="Path_8263" data-name="Path 8263" class="cls-12" d="M67.45,95.25v22.39l4.48-.5,6.37,6V99.83Z"/><path id="Path_8264" data-name="Path 8264" class="cls-13" d="M100.55,178.35l57.24-26.84V83.84l-57.24,26.84Z"/><path id="Path_8265" data-name="Path 8265" class="cls-13" d="M100.54,56.71,43.3,83.84l57.24,26.84,57.25-26.84Z"/><path id="Path_8266" data-name="Path 8266" class="cls-13" d="M100.54,178.35,43.3,151.51V83.84l57.25,26.84Z"/><path id="Path_8267" data-name="Path 8267" class="cls-14" d="M67.45,95.25v22.39l4.48-.5,6.37,6V99.83Z"/><path id="Path_8268" data-name="Path 8268" class="cls-14" d="M66.49,94.71,77.4,99.83l57.37-26.9-11.15-5.28Z"/><path id="Path_8269" data-name="Path 8269" class="cls-3" d="M128.33,157.5l23.73-11.12V126.79l-23.73,11.12Z"/><line id="Line_143" data-name="Line 143" class="cls-14" x1="147.07" y1="134.04" x2="133.48" y2="140.41"/><line id="Line_144" data-name="Line 144" class="cls-14" x1="147.07" y1="138.96" x2="133.48" y2="145.33"/><line id="Line_145" data-name="Line 145" class="cls-14" x1="142.71" y1="145.92" x2="133.48" y2="150.25"/><path id="Path_8270" data-name="Path 8270" class="cls-4" d="M148.23,128.58v19.59l3.83-1.79V126.79Z"/><path id="Path_8271" data-name="Path 8271" class="cls-14" d="M128.33,157.5l23.73-11.12V126.79l-23.73,11.12Z"/><path id="Path_8272" data-name="Path 8272" class="cls-9" d="M112.82,161.43,107,164v-8.95l5.85-2.57Z"/><path id="Path_8273" data-name="Path 8273" class="cls-9" d="M109.89,150.11,105.22,158l9.35-4.11Z"/><path id="Path_8274" data-name="Path 8274" class="cls-9" d="M123.37,156.78l-5.85,2.58v-9l5.85-2.58Z"/><path id="Path_8275" data-name="Path 8275" class="cls-9" d="M120.45,145.46l-4.67,7.88,9.35-4.12Z"/><path id="Path_8276" data-name="Path 8276" class="cls-3" d="M121.41,114.87,130,125.74l-17.18,8Z"/><path id="Path_8277" data-name="Path 8277" class="cls-4" d="M128.21,126.58l1.79-.84-8.59-10.87-.9,2Z"/><path id="Path_8278" data-name="Path 8278" class="cls-14" d="M121.41,114.87,130,125.74l-17.18,8Z"/><path id="Path_8279" data-name="Path 8279" class="cls-10" d="M120.62,125.26l2.35-1.09v-5.36l-2.35,1.1Z"/><path id="Path_8280" data-name="Path 8280" class="cls-10" d="M120.62,128.52l2.35-1.09v-2l-2.35,1.09Z"/><path id="Path_8281" data-name="Path 8281" class="cls-3" d="M141.4,105.64,150,116.51l-17.18,8Z"/><path id="Path_8282" data-name="Path 8282" class="cls-4" d="M148.21,117.35l1.79-.84-8.59-10.87-.9,2Z"/><path id="Path_8283" data-name="Path 8283" class="cls-14" d="M141.4,105.64,150,116.51l-17.18,8Z"/><path id="Path_8284" data-name="Path 8284" class="cls-9" d="M143.88,113.35v-2.61l-.79.58-.86,2.36.76-.56-1.66,3.2.4-1.79-1,.7.56-2.62-1.52,1.1v2.61c0,1,.7,1.31,1.64.82v1.16l-.92.66a.51.51,0,0,0-.2.36c0,.11.09.13.2.05l.92-.66.82-.6.91-.66a.49.49,0,0,0,.2-.35c0-.12-.09-.14-.2-.06l-.91.66v-1.15a5,5,0,0,0,1.63-3.2"/><line id="Line_146" data-name="Line 146" class="cls-15" x1="106.97" y1="113.75" x2="153.47" y2="92.64"/><path id="Path_8285" data-name="Path 8285" class="cls-10" d="M50.29,94.31a1.32,1.32,0,1,0,1.23-1.41,1.32,1.32,0,0,0-1.23,1.41h0"/><path id="Path_8286" data-name="Path 8286" class="cls-10" d="M55.16,96.63a1.32,1.32,0,1,0,1.23-1.41,1.32,1.32,0,0,0-1.23,1.41h0"/><path id="Path_8287" data-name="Path 8287" class="cls-10" d="M60,99a1.33,1.33,0,1,0,1.23-1.42A1.33,1.33,0,0,0,60,99h0"/><line id="Line_147" data-name="Line 147" class="cls-16" x1="81.91" y1="107.64" x2="94.73" y2="113.75"/><line id="Line_148" data-name="Line 148" class="cls-16" x1="81.91" y1="112.03" x2="94.73" y2="118.14"/><line id="Line_149" data-name="Line 149" class="cls-16" x1="81.91" y1="116.41" x2="89.23" y2="119.9"/><path id="Path_8288" data-name="Path 8288" class="cls-3" d="M46.71,117.14,22.21,122v29.63c0,10.79,6.57,20.35,16.29,23.72l8.21,2.84,8.21-2.84c9.73-3.37,16.29-12.93,16.29-23.72V122Z"/><path id="Path_8289" data-name="Path 8289" class="cls-4" d="M68.32,121.46l.13,30.21c0,10.78-6.57,20.34-16.29,23.71l-6.83,2.37,1.39.48,8.21-2.85c9.72-3.37,16.29-12.93,16.29-23.71V122c-.92.14-2-.65-2.9-.58"/><path id="Path_8290" data-name="Path 8290" class="cls-13" d="M46.71,117.14,22.21,122v29.63c0,10.79,6.57,20.35,16.29,23.72l8.21,2.84,8.21-2.84c9.73-3.37,16.29-12.93,16.29-23.72V122Z"/><path id="Path_8291" data-name="Path 8291" class="cls-3" d="M46.71,124.55,29.55,128v23.47A17.45,17.45,0,0,0,41,168.07l5.75,2,5.76-2a17.45,17.45,0,0,0,11.41-16.62V128Z"/><path id="Path_8292" data-name="Path 8292" class="cls-5" d="M46.71,124.55,29.55,128v23.47A17.45,17.45,0,0,0,41,168.07l5.75,2,5.76-2a17.45,17.45,0,0,0,11.41-16.62V128Z"/><path id="Path_8293" data-name="Path 8293" class="cls-11" d="M48,173.84a1.33,1.33,0,1,1-1.33-1.32h0A1.32,1.32,0,0,1,48,173.84"/><path id="Path_8294" data-name="Path 8294" class="cls-4" d="M47.34,165.75a.63.63,0,1,1-.63-.63h0a.63.63,0,0,1,.63.63h0"/><path id="Path_8295" data-name="Path 8295" class="cls-11" d="M43.09,172.52a1.32,1.32,0,1,1-1.32-1.32h0a1.32,1.32,0,0,1,1.32,1.32"/><path id="Path_8296" data-name="Path 8296" class="cls-11" d="M53,172.52a1.32,1.32,0,1,1-1.32-1.32h0A1.32,1.32,0,0,1,53,172.52"/><line id="Line_150" data-name="Line 150" class="cls-5" x1="41.77" y1="128.9" x2="51.66" y2="128.9"/><line id="Line_151" data-name="Line 151" class="cls-5" x1="44.8" y1="132.69" x2="48.62" y2="132.69"/><path id="Path_8297" data-name="Path 8297" class="cls-10" d="M40.69,160.59h0A8.62,8.62,0,0,1,38.87,151l5.28-12.19a2.91,2.91,0,0,1,5.32,0L54.75,151a8.65,8.65,0,0,1-14.06,9.57"/><path id="Path_8298" data-name="Path 8298" class="cls-9" d="M54.75,151l-5.28-12.19a2.9,2.9,0,0,0-3.82-1.5,3.08,3.08,0,0,0-1,.67,3.24,3.24,0,0,1,.55.83L50.52,151a8.65,8.65,0,0,1-5.83,11.83A8.65,8.65,0,0,0,54.75,151"/><path id="Path_8299" data-name="Path 8299" class="cls-14" d="M40.69,160.59h0A8.62,8.62,0,0,1,38.87,151l5.28-12.19a2.91,2.91,0,0,1,5.32,0L54.75,151a8.65,8.65,0,0,1-14.06,9.57Z"/></g></g></g></svg>