<svg id="Group_33" data-name="Group 33" xmlns="http://www.w3.org/2000/svg" xmlns:xlink="http://www.w3.org/1999/xlink" width="180" height="180.706" viewBox="0 0 180 180.706">
  <defs>
    <clipPath id="clip-path">
      <rect id="Rectangle_65" data-name="Rectangle 65" width="180" height="180.706" fill="none"/>
    </clipPath>
  </defs>
  <path id="Path_8106" data-name="Path 8106" d="M28.6,174.942l-16.991-7.967V146.89L28.6,154.857Z" transform="translate(-3.285 -41.544)" fill="#e6f6f8"/>
  <path id="Path_8107" data-name="Path 8107" d="M35.305,174.942,52.3,166.974V146.89l-16.991,7.967Z" transform="translate(-9.985 -41.544)" fill="#e6f6f8"/>
  <path id="Path_8108" data-name="Path 8108" d="M28.6,135.665l-16.991,8.05L28.6,151.682,45.6,143.715Z" transform="translate(-3.285 -38.369)" fill="#e6f6f8"/>
  <path id="Path_8109" data-name="Path 8109" d="M35.305,174.942,52.3,166.974V146.89l-16.991,7.967Z" transform="translate(-9.985 -41.544)" fill="none" stroke="#c2eaef" stroke-linecap="round" stroke-linejoin="round" stroke-width="1.969"/>
  <path id="Path_8110" data-name="Path 8110" d="M28.6,135.665l-16.991,8.05L28.6,151.682,45.6,143.715Z" transform="translate(-3.285 -38.369)" fill="none" stroke="#c2eaef" stroke-linecap="round" stroke-linejoin="round" stroke-width="1.969"/>
  <path id="Path_8111" data-name="Path 8111" d="M28.6,174.942l-16.991-7.967V146.89L28.6,154.857Z" transform="translate(-3.285 -41.544)" fill="none" stroke="#c2eaef" stroke-linecap="round" stroke-linejoin="round" stroke-width="1.969"/>
  <path id="Path_8112" data-name="Path 8112" d="M21.61,151.614v6.646l1.327-.149,1.891,1.769v-6.908Z" transform="translate(-6.112 -42.88)" fill="#c2eaef"/>
  <path id="Path_8113" data-name="Path 8113" d="M21.214,148.223l3.237,1.518,17.027-7.984-3.309-1.568Z" transform="translate(-6 -39.649)" fill="#c2eaef"/>
  <path id="Path_8114" data-name="Path 8114" d="M45.016,172.765l7.044-3.3v-5.815l-7.044,3.3Z" transform="translate(-12.732 -46.283)" fill="#c2eaef"/>
  <path id="Path_8115" data-name="Path 8115" d="M29.079,172.577,26.5,168.236l-2.579,2.07.966.425v3.743l3.226,1.42v-3.743Z" transform="translate(-6.766 -47.581)" fill="#c2eaef"/>
  <path id="Path_8116" data-name="Path 8116" d="M18.385,164.664l-2.579,2.071.966.425V170.9L20,172.323V168.58l.966.425Z" transform="translate(-4.47 -46.571)" fill="#c2eaef"/>
  <rect id="Rectangle_56" data-name="Rectangle 56" width="2.167" height="6.165" transform="translate(166.944 125.581)" fill="#c2eaef"/>
  <g id="Group_32" data-name="Group 32">
    <g id="Group_31" data-name="Group 31" clip-path="url(#clip-path)">
      <path id="Path_8117" data-name="Path 8117" d="M240.786,156.743a10.726,10.726,0,1,1-10.727-10.727,10.727,10.727,0,0,1,10.727,10.727" transform="translate(-62.032 -41.297)" fill="#e6f6f8"/>
      <path id="Path_8118" data-name="Path 8118" d="M240.786,156.743a10.726,10.726,0,1,1-10.727-10.727A10.727,10.727,0,0,1,240.786,156.743Z" transform="translate(-62.032 -41.297)" fill="none" stroke="#c2eaef" stroke-linecap="round" stroke-linejoin="round" stroke-width="1.969"/>
      <path id="Path_8119" data-name="Path 8119" d="M239.314,157.7a8.3,8.3,0,1,1-8.3-8.3,8.3,8.3,0,0,1,8.3,8.3" transform="translate(-62.991 -42.255)" fill="#c2eaef"/>
      <path id="Path_8120" data-name="Path 8120" d="M225.481,158.821a6.314,6.314,0,0,1,3.133-5.458" transform="translate(-63.771 -43.375)" fill="none" stroke="#fff" stroke-linecap="round" stroke-linejoin="round" stroke-width="1.969"/>
      <path id="Path_8121" data-name="Path 8121" d="M233.212,190.625h0a2.733,2.733,0,0,1-2.732-2.732v-6.107a2.732,2.732,0,0,1,5.465,0v6.107a2.733,2.733,0,0,1-2.732,2.732" transform="translate(-65.185 -50.64)" fill="#e6f6f8"/>
      <path id="Path_8122" data-name="Path 8122" d="M233.212,190.625h0a2.733,2.733,0,0,1-2.732-2.732v-6.107a2.732,2.732,0,0,1,5.465,0v6.107A2.733,2.733,0,0,1,233.212,190.625Z" transform="translate(-65.185 -50.64)" fill="none" stroke="#c2eaef" stroke-linecap="round" stroke-linejoin="round" stroke-width="1.969"/>
      <rect id="Rectangle_57" data-name="Rectangle 57" width="2.167" height="6.165" transform="translate(166.944 163.984)" fill="#c2eaef"/>
      <path id="Path_8123" data-name="Path 8123" d="M240.786,210.29a10.726,10.726,0,1,1-10.727-10.727,10.727,10.727,0,0,1,10.727,10.727" transform="translate(-62.032 -56.441)" fill="#e6f6f8"/>
      <path id="Path_8124" data-name="Path 8124" d="M240.786,210.29a10.726,10.726,0,1,1-10.727-10.727A10.727,10.727,0,0,1,240.786,210.29Z" transform="translate(-62.032 -56.441)" fill="none" stroke="#c2eaef" stroke-linecap="round" stroke-linejoin="round" stroke-width="1.969"/>
      <path id="Path_8125" data-name="Path 8125" d="M239.314,211.249a8.3,8.3,0,1,1-8.3-8.3,8.3,8.3,0,0,1,8.3,8.3" transform="translate(-62.991 -57.4)" fill="#c2eaef"/>
      <path id="Path_8126" data-name="Path 8126" d="M225.481,212.368a6.314,6.314,0,0,1,3.133-5.458" transform="translate(-63.771 -58.519)" fill="none" stroke="#fff" stroke-linecap="round" stroke-linejoin="round" stroke-width="1.969"/>
      <path id="Path_8127" data-name="Path 8127" d="M233.212,244.172h0a2.733,2.733,0,0,1-2.732-2.732v-6.107a2.732,2.732,0,0,1,5.465,0v6.107a2.733,2.733,0,0,1-2.732,2.732" transform="translate(-65.185 -65.785)" fill="#e6f6f8"/>
      <path id="Path_8128" data-name="Path 8128" d="M233.212,244.172h0a2.733,2.733,0,0,1-2.732-2.732v-6.107a2.732,2.732,0,0,1,5.465,0v6.107A2.733,2.733,0,0,1,233.212,244.172Z" transform="translate(-65.185 -65.785)" fill="none" stroke="#c2eaef" stroke-linecap="round" stroke-linejoin="round" stroke-width="1.969"/>
      <path id="Path_8129" data-name="Path 8129" d="M109.98,99.238a52.955,52.955,0,1,1,74.889,0,52.955,52.955,0,0,1-74.889,0" transform="translate(-26.718 -2.5)" fill="#e6f6f8"/>
      <path id="Path_8130" data-name="Path 8130" d="M179.4,108.227a25.914,25.914,0,0,1-36.648,0" transform="translate(-40.375 -30.609)" fill="none" stroke="#c2eaef" stroke-linecap="round" stroke-linejoin="round" stroke-width="1.969"/>
      <path id="Path_8131" data-name="Path 8131" d="M142.757,54.133a25.915,25.915,0,0,1,36.648,0" transform="translate(-40.375 -13.164)" fill="none" stroke="#c2eaef" stroke-linecap="round" stroke-linejoin="round" stroke-width="1.969"/>
      <circle id="Ellipse_5" data-name="Ellipse 5" cx="4.507" cy="4.507" r="4.507" transform="translate(116.199 54.787)" fill="none" stroke="#c2eaef" stroke-linecap="round" stroke-linejoin="round" stroke-width="1.969"/>
      <line id="Line_42" data-name="Line 42" x1="7.967" y2="7.967" transform="translate(154.167 17.866)" fill="none" stroke="#c2eaef" stroke-linecap="round" stroke-linejoin="round" stroke-width="1.969"/>
      <line id="Line_43" data-name="Line 43" x1="7.967" y2="7.967" transform="translate(79.278 92.755)" fill="none" stroke="#c2eaef" stroke-linecap="round" stroke-linejoin="round" stroke-width="1.969"/>
      <line id="Line_44" data-name="Line 44" x1="7.967" y1="7.967" transform="translate(154.167 92.755)" fill="none" stroke="#c2eaef" stroke-linecap="round" stroke-linejoin="round" stroke-width="1.969"/>
      <line id="Line_45" data-name="Line 45" y1="11.267" transform="translate(120.308 78.613)" fill="none" stroke="#c2eaef" stroke-linecap="round" stroke-linejoin="round" stroke-width="1.969"/>
      <line id="Line_46" data-name="Line 46" y1="11.267" transform="translate(120.308 27.911)" fill="none" stroke="#c2eaef" stroke-linecap="round" stroke-linejoin="round" stroke-width="1.969"/>
      <line id="Line_47" data-name="Line 47" x2="11.267" transform="translate(89.323 58.895)" fill="none" stroke="#c2eaef" stroke-linecap="round" stroke-linejoin="round" stroke-width="1.969"/>
      <line id="Line_48" data-name="Line 48" x2="11.267" transform="translate(140.025 58.895)" fill="none" stroke="#c2eaef" stroke-linecap="round" stroke-linejoin="round" stroke-width="1.969"/>
      <line id="Line_49" data-name="Line 49" x1="7.967" y1="7.967" transform="translate(79.278 17.865)" fill="none" stroke="#c2eaef" stroke-linecap="round" stroke-linejoin="round" stroke-width="1.969"/>
      <line id="Line_50" data-name="Line 50" x2="11.267" transform="translate(62.118 59.294)" fill="none" stroke="#c2eaef" stroke-linecap="round" stroke-linejoin="round" stroke-width="1.969"/>
      <line id="Line_51" data-name="Line 51" x2="11.267" transform="translate(168.027 59.294)" fill="none" stroke="#c2eaef" stroke-linecap="round" stroke-linejoin="round" stroke-width="1.969"/>
      <line id="Line_52" data-name="Line 52" x2="11.267" transform="translate(62.118 59.294)" fill="none" stroke="#c2eaef" stroke-linecap="round" stroke-linejoin="round" stroke-width="1.969"/>
      <line id="Line_53" data-name="Line 53" x2="11.267" transform="translate(168.027 59.294)" fill="none" stroke="#c2eaef" stroke-linecap="round" stroke-linejoin="round" stroke-width="1.969"/>
      <line id="Line_54" data-name="Line 54" y2="11.267" transform="translate(120.706 0.705)" fill="none" stroke="#c2eaef" stroke-linecap="round" stroke-linejoin="round" stroke-width="1.969"/>
      <line id="Line_55" data-name="Line 55" y2="11.267" transform="translate(120.706 106.615)" fill="none" stroke="#c2eaef" stroke-linecap="round" stroke-linejoin="round" stroke-width="1.969"/>
      <path id="Path_8132" data-name="Path 8132" d="M125.964,124.132a1.127,1.127,0,1,1,1.594,0,1.126,1.126,0,0,1-1.594,0" transform="translate(-35.532 -34.563)" fill="#c2eaef"/>
      <path id="Path_8133" data-name="Path 8133" d="M130.407,119.689a1.127,1.127,0,1,1,1.594,0,1.126,1.126,0,0,1-1.594,0" transform="translate(-36.789 -33.307)" fill="#c2eaef"/>
      <path id="Path_8134" data-name="Path 8134" d="M134.851,115.245a1.127,1.127,0,1,1,1.594,0,1.126,1.126,0,0,1-1.594,0" transform="translate(-38.045 -32.05)" fill="#c2eaef"/>
      <path id="Path_8135" data-name="Path 8135" d="M198.171,51.925a1.127,1.127,0,1,1,1.594,0,1.126,1.126,0,0,1-1.594,0" transform="translate(-55.954 -14.141)" fill="#c2eaef"/>
      <path id="Path_8136" data-name="Path 8136" d="M202.614,47.482a1.127,1.127,0,1,1,1.594,0,1.126,1.126,0,0,1-1.594,0" transform="translate(-57.21 -12.885)" fill="#c2eaef"/>
      <path id="Path_8137" data-name="Path 8137" d="M207.058,43.038a1.127,1.127,0,1,1,1.594,0,1.126,1.126,0,0,1-1.594,0" transform="translate(-58.467 -11.628)" fill="#c2eaef"/>
      <path id="Path_8138" data-name="Path 8138" d="M125.964,41.444a1.127,1.127,0,1,1,0,1.594,1.126,1.126,0,0,1,0-1.594" transform="translate(-35.532 -11.628)" fill="#c2eaef"/>
      <path id="Path_8139" data-name="Path 8139" d="M130.407,45.888a1.127,1.127,0,1,1,0,1.594,1.126,1.126,0,0,1,0-1.594" transform="translate(-36.789 -12.885)" fill="#c2eaef"/>
      <path id="Path_8140" data-name="Path 8140" d="M134.851,50.331a1.127,1.127,0,1,1,0,1.594,1.126,1.126,0,0,1,0-1.594" transform="translate(-38.045 -14.141)" fill="#c2eaef"/>
      <path id="Path_8141" data-name="Path 8141" d="M198.171,113.651a1.127,1.127,0,1,1,0,1.594,1.126,1.126,0,0,1,0-1.594" transform="translate(-55.954 -32.05)" fill="#c2eaef"/>
      <path id="Path_8142" data-name="Path 8142" d="M202.614,118.095a1.127,1.127,0,1,1,0,1.594,1.126,1.126,0,0,1,0-1.594" transform="translate(-57.21 -33.306)" fill="#c2eaef"/>
      <path id="Path_8143" data-name="Path 8143" d="M207.058,122.538a1.127,1.127,0,1,1,0,1.594,1.126,1.126,0,0,1,0-1.594" transform="translate(-58.467 -34.563)" fill="#c2eaef"/>
      <line id="Line_56" data-name="Line 56" x1="2.39" y1="2.39" transform="translate(123.893 62.48)" fill="none" stroke="#c2eaef" stroke-linecap="round" stroke-linejoin="round" stroke-width="1.969"/>
      <line id="Line_57" data-name="Line 57" x1="2.39" y1="2.39" transform="translate(115.129 53.717)" fill="none" stroke="#c2eaef" stroke-linecap="round" stroke-linejoin="round" stroke-width="1.969"/>
      <line id="Line_58" data-name="Line 58" y1="2.39" x2="2.39" transform="translate(115.129 62.48)" fill="none" stroke="#c2eaef" stroke-linecap="round" stroke-linejoin="round" stroke-width="1.969"/>
      <line id="Line_59" data-name="Line 59" y1="2.39" x2="2.39" transform="translate(123.893 53.717)" fill="none" stroke="#c2eaef" stroke-linecap="round" stroke-linejoin="round" stroke-width="1.969"/>
      <line id="Line_60" data-name="Line 60" x2="6.353" transform="translate(6.353 81.113)" fill="#f7fcfd"/>
      <line id="Line_61" data-name="Line 61" x2="6.353" transform="translate(6.353 81.113)" fill="none" stroke="#c2eaef" stroke-linecap="round" stroke-linejoin="round" stroke-width="1.969"/>
      <line id="Line_62" data-name="Line 62" x2="16.235" transform="translate(6.353 51.466)" fill="#f7fcfd"/>
      <line id="Line_63" data-name="Line 63" x2="16.235" transform="translate(6.353 51.466)" fill="none" stroke="#c2eaef" stroke-linecap="round" stroke-linejoin="round" stroke-width="1.969"/>
      <path id="Path_8144" data-name="Path 8144" d="M8.858,71.761h6.353v44.471H8.858" transform="translate(-2.505 -20.296)" fill="none" stroke="#c2eaef" stroke-linecap="round" stroke-linejoin="round" stroke-width="1.969"/>
      <path id="Path_8145" data-name="Path 8145" d="M2.953,70.369A3.53,3.53,0,1,0,6.482,66.84a3.529,3.529,0,0,0-3.529,3.529" transform="translate(-0.835 -18.904)" fill="#f7fcfd"/>
      <path id="Path_8146" data-name="Path 8146" d="M2.953,70.369A3.53,3.53,0,1,0,6.482,66.84,3.529,3.529,0,0,0,2.953,70.369Z" transform="translate(-0.835 -18.904)" fill="none" stroke="#c2eaef" stroke-linecap="round" stroke-linejoin="round" stroke-width="1.969"/>
      <path id="Path_8147" data-name="Path 8147" d="M2.953,111.708a3.53,3.53,0,1,0,3.529-3.529,3.529,3.529,0,0,0-3.529,3.529" transform="translate(-0.835 -30.595)" fill="#f7fcfd"/>
      <path id="Path_8148" data-name="Path 8148" d="M2.953,111.708a3.53,3.53,0,1,0,3.529-3.529A3.529,3.529,0,0,0,2.953,111.708Z" transform="translate(-0.835 -30.595)" fill="none" stroke="#c2eaef" stroke-linecap="round" stroke-linejoin="round" stroke-width="1.969"/>
      <line id="Line_64" data-name="Line 64" x2="6.353" transform="translate(6.353 66.289)" fill="#f7fcfd"/>
      <line id="Line_65" data-name="Line 65" x2="6.353" transform="translate(6.353 66.289)" fill="none" stroke="#c2eaef" stroke-linecap="round" stroke-linejoin="round" stroke-width="1.969"/>
      <path id="Path_8149" data-name="Path 8149" d="M2.953,91.039A3.53,3.53,0,1,0,6.482,87.51a3.529,3.529,0,0,0-3.529,3.529" transform="translate(-0.835 -24.75)" fill="#f7fcfd"/>
      <path id="Path_8150" data-name="Path 8150" d="M2.953,91.039A3.53,3.53,0,1,0,6.482,87.51,3.529,3.529,0,0,0,2.953,91.039Z" transform="translate(-0.835 -24.75)" fill="none" stroke="#c2eaef" stroke-linecap="round" stroke-linejoin="round" stroke-width="1.969"/>
      <path id="Path_8151" data-name="Path 8151" d="M2.953,132.377a3.53,3.53,0,1,0,3.529-3.529,3.529,3.529,0,0,0-3.529,3.529" transform="translate(-0.835 -36.441)" fill="#f7fcfd"/>
      <path id="Path_8152" data-name="Path 8152" d="M2.953,132.377a3.53,3.53,0,1,0,3.529-3.529A3.529,3.529,0,0,0,2.953,132.377Z" transform="translate(-0.835 -36.441)" fill="none" stroke="#c2eaef" stroke-linecap="round" stroke-linejoin="round" stroke-width="1.969"/>
      <path id="Path_8153" data-name="Path 8153" d="M26.575,70.369A3.53,3.53,0,1,0,30.1,66.84a3.529,3.529,0,0,0-3.529,3.529" transform="translate(-7.516 -18.904)" fill="#f7fcfd"/>
      <path id="Path_8154" data-name="Path 8154" d="M26.575,70.369A3.53,3.53,0,1,0,30.1,66.84,3.529,3.529,0,0,0,26.575,70.369Z" transform="translate(-7.516 -18.904)" fill="none" stroke="#c2eaef" stroke-linecap="round" stroke-linejoin="round" stroke-width="1.969"/>
      <line id="Line_66" data-name="Line 66" x1="6.353" transform="translate(141.437 130.718)" fill="#f7fcfd"/>
      <line id="Line_67" data-name="Line 67" x1="6.353" transform="translate(141.437 130.718)" fill="none" stroke="#c2eaef" stroke-linecap="round" stroke-linejoin="round" stroke-width="1.969"/>
      <line id="Line_68" data-name="Line 68" x1="16.235" transform="translate(131.554 160.365)" fill="#f7fcfd"/>
      <line id="Line_69" data-name="Line 69" x1="16.235" transform="translate(131.554 160.365)" fill="none" stroke="#c2eaef" stroke-linecap="round" stroke-linejoin="round" stroke-width="1.969"/>
      <path id="Path_8155" data-name="Path 8155" d="M203.566,206.069h-6.353V161.6h6.353" transform="translate(-55.776 -45.704)" fill="none" stroke="#c2eaef" stroke-linecap="round" stroke-linejoin="round" stroke-width="1.969"/>
      <path id="Path_8156" data-name="Path 8156" d="M209.193,222.214a3.53,3.53,0,1,0-3.529,3.529,3.529,3.529,0,0,0,3.529-3.529" transform="translate(-57.168 -61.849)" fill="#f7fcfd"/>
      <path id="Path_8157" data-name="Path 8157" d="M209.193,222.214a3.53,3.53,0,1,0-3.529,3.529A3.529,3.529,0,0,0,209.193,222.214Z" transform="translate(-57.168 -61.849)" fill="none" stroke="#c2eaef" stroke-linecap="round" stroke-linejoin="round" stroke-width="1.969"/>
      <path id="Path_8158" data-name="Path 8158" d="M209.193,180.876a3.53,3.53,0,1,0-3.529,3.529,3.529,3.529,0,0,0,3.529-3.529" transform="translate(-57.168 -50.158)" fill="#f7fcfd"/>
      <path id="Path_8159" data-name="Path 8159" d="M209.193,180.876a3.53,3.53,0,1,0-3.529,3.529A3.529,3.529,0,0,0,209.193,180.876Z" transform="translate(-57.168 -50.158)" fill="none" stroke="#c2eaef" stroke-linecap="round" stroke-linejoin="round" stroke-width="1.969"/>
      <line id="Line_70" data-name="Line 70" x1="6.353" transform="translate(141.437 145.542)" fill="#f7fcfd"/>
      <line id="Line_71" data-name="Line 71" x1="6.353" transform="translate(141.437 145.542)" fill="none" stroke="#c2eaef" stroke-linecap="round" stroke-linejoin="round" stroke-width="1.969"/>
      <path id="Path_8160" data-name="Path 8160" d="M209.193,201.545a3.53,3.53,0,1,0-3.529,3.529,3.529,3.529,0,0,0,3.529-3.529" transform="translate(-57.168 -56.003)" fill="#f7fcfd"/>
      <path id="Path_8161" data-name="Path 8161" d="M209.193,201.545a3.53,3.53,0,1,0-3.529,3.529A3.529,3.529,0,0,0,209.193,201.545Z" transform="translate(-57.168 -56.003)" fill="none" stroke="#c2eaef" stroke-linecap="round" stroke-linejoin="round" stroke-width="1.969"/>
      <path id="Path_8162" data-name="Path 8162" d="M209.193,160.207a3.53,3.53,0,1,0-3.529,3.529,3.529,3.529,0,0,0,3.529-3.529" transform="translate(-57.168 -44.312)" fill="#f7fcfd"/>
      <path id="Path_8163" data-name="Path 8163" d="M209.193,160.207a3.53,3.53,0,1,0-3.529,3.529A3.529,3.529,0,0,0,209.193,160.207Z" transform="translate(-57.168 -44.312)" fill="none" stroke="#c2eaef" stroke-linecap="round" stroke-linejoin="round" stroke-width="1.969"/>
      <path id="Path_8164" data-name="Path 8164" d="M185.571,222.214a3.53,3.53,0,1,0-3.529,3.529,3.529,3.529,0,0,0,3.529-3.529" transform="translate(-50.487 -61.849)" fill="#f7fcfd"/>
      <path id="Path_8165" data-name="Path 8165" d="M185.571,222.214a3.53,3.53,0,1,0-3.529,3.529A3.529,3.529,0,0,0,185.571,222.214Z" transform="translate(-50.487 -61.849)" fill="none" stroke="#c2eaef" stroke-linecap="round" stroke-linejoin="round" stroke-width="1.969"/>
      <path id="Path_8166" data-name="Path 8166" d="M69.882,7.381H84a4.941,4.941,0,1,1,0,9.883A4.941,4.941,0,0,0,79.058,22.2V39.145" transform="translate(-19.764 -2.088)" fill="none" stroke="#e6f6f8" stroke-linecap="round" stroke-linejoin="round" stroke-width="1.969"/>
      <path id="Path_8167" data-name="Path 8167" d="M77.756,52.249a3.53,3.53,0,1,0,3.529-3.529,3.529,3.529,0,0,0-3.529,3.529" transform="translate(-21.991 -13.779)" fill="#f7fcfd"/>
      <path id="Path_8168" data-name="Path 8168" d="M77.756,52.249a3.53,3.53,0,1,0,3.529-3.529A3.529,3.529,0,0,0,77.756,52.249Z" transform="translate(-21.991 -13.779)" fill="none" stroke="#c2eaef" stroke-linecap="round" stroke-linejoin="round" stroke-width="1.969"/>
      <path id="Path_8169" data-name="Path 8169" d="M37.566,12.521V6.26H31.3v6.261H25.044V0H0V25.043H12.522V37.565H25.044V31.3H18.783V25.043h6.261V18.782H31.3v6.261h6.261V31.3h6.261V12.521Zm-18.783,0v6.261H6.261V6.26H18.783Z" transform="translate(0 0)" fill="#e6f6f8"/>
      <rect id="Rectangle_58" data-name="Rectangle 58" width="6.261" height="6.261" transform="translate(37.565 -0.001)" fill="#c2eaef"/>
      <rect id="Rectangle_59" data-name="Rectangle 59" width="6.261" height="6.261" transform="translate(25.044 25.043)" fill="#c2eaef"/>
      <rect id="Rectangle_60" data-name="Rectangle 60" width="6.261" height="6.261" transform="translate(0 31.304)" fill="#c2eaef"/>
      <rect id="Rectangle_61" data-name="Rectangle 61" width="6.261" height="6.261" transform="translate(6.261 37.565)" fill="#c2eaef"/>
      <rect id="Rectangle_62" data-name="Rectangle 62" width="6.261" height="6.261" transform="translate(37.565 37.565)" fill="#c2eaef"/>
      <rect id="Rectangle_63" data-name="Rectangle 63" width="6.261" height="6.261" transform="translate(25.044 37.565)" fill="#c2eaef"/>
      <rect id="Rectangle_64" data-name="Rectangle 64" width="6.261" height="6.261" transform="translate(9.391 9.391)" fill="#c2eaef"/>
      <path id="Path_8170" data-name="Path 8170" d="M16.309,202.321H14.3v-2.007H12.293v2.007H10.286v2.007h2.007v2.007H8.278v-4.015H4.263v-8.03h8.03v4.015H14.3V196.3h2.007v2.007h2.007v6.023H16.309ZM6.271,196.3v4.015h4.015V196.3H6.271Zm10.038-2.007h2.007V196.3H16.309Zm-4.015,8.03H14.3v2.007H12.293Zm-8.03,2.007H6.27v2.007H4.263Zm2.008,2.007H8.278v2.007H6.271Zm10.038,0h2.007v2.007H16.309Zm-4.015,0H14.3v2.007H12.293ZM7.274,197.3H9.282v2.007H7.274Z" transform="translate(-1.206 -54.95)" fill="#c2eaef"/>
      <line id="Line_72" data-name="Line 72" x2="12.134" transform="translate(20.808 141.424)" fill="none" stroke="#c2eaef" stroke-linecap="round" stroke-linejoin="round" stroke-width="1.969"/>
      <line id="Line_73" data-name="Line 73" x2="12.134" transform="translate(20.808 146.367)" fill="none" stroke="#c2eaef" stroke-linecap="round" stroke-linejoin="round" stroke-width="1.969"/>
      <line id="Line_74" data-name="Line 74" x2="6.789" transform="translate(20.808 151.311)" fill="none" stroke="#c2eaef" stroke-linecap="round" stroke-linejoin="round" stroke-width="1.969"/>
      <path id="Path_8171" data-name="Path 8171" d="M16.309,229.089H14.3v-2.007H12.293v2.007H10.286V231.1h2.007V233.1H8.278v-4.015H4.263v-8.03h8.03v4.015H14.3v-2.008h2.007v2.008h2.007V231.1H16.309ZM6.271,223.066v4.015h4.015v-4.015H6.271Zm10.038-2.007h2.007v2.007H16.309Zm-4.015,8.03H14.3V231.1H12.293ZM4.263,231.1H6.27V233.1H4.263ZM6.271,233.1H8.278v2.007H6.271Zm10.038,0h2.007v2.007H16.309Zm-4.015,0H14.3v2.007H12.293ZM7.274,224.07H9.282v2.007H7.274Z" transform="translate(-1.206 -62.521)" fill="#c2eaef"/>
      <path id="Path_8172" data-name="Path 8172" d="M159.5,181.372a16.653,16.653,0,0,1-5.172,11.3H53.958a16.675,16.675,0,0,1,5.525-27.664,9.294,9.294,0,0,0,5.981-8.678V130.985h2.608V110.027a36.073,36.073,0,0,1,72.147,0v20.957h2.6v25.344a9.3,9.3,0,0,0,5.983,8.678A16.7,16.7,0,0,1,159.5,181.372Z" transform="translate(-13.793 -20.916)" fill="#9cdde5"/>
      <path id="Path_8173" data-name="Path 8173" d="M167.026,165.008a9.3,9.3,0,0,1-5.983-8.678V130.986h-2.6V110.028A36.076,36.076,0,0,0,113.195,75.14a36.135,36.135,0,0,1,26.9,34.888v20.958h2.6V156.33a9.3,9.3,0,0,0,5.983,8.678,16.675,16.675,0,0,1,5.525,27.664h18.343a16.675,16.675,0,0,0-5.525-27.664" transform="translate(-32.014 -20.916)" fill="#88d6e0"/>
      <path id="Path_8174" data-name="Path 8174" d="M167.686,167.115v8.752a48.094,48.094,0,0,0,2.9,16.451" transform="translate(-47.425 -47.264)" fill="none" stroke="#9cdde5" stroke-linecap="round" stroke-linejoin="round" stroke-width="1.969"/>
      <path id="Path_8175" data-name="Path 8175" d="M155.092,175.6l.3,3.513a23.106,23.106,0,0,0,4.855,12.318" transform="translate(-43.864 -49.664)" fill="none" stroke="#9cdde5" stroke-linecap="round" stroke-linejoin="round" stroke-width="1.969"/>
      <path id="Path_8176" data-name="Path 8176" d="M83.664,167.115v8.752a48.094,48.094,0,0,1-2.9,16.451" transform="translate(-22.841 -47.264)" fill="none" stroke="#88d6e0" stroke-linecap="round" stroke-linejoin="round" stroke-width="1.969"/>
      <path id="Path_8177" data-name="Path 8177" d="M95.369,175.6l-.3,3.513a23.106,23.106,0,0,1-4.855,12.318" transform="translate(-25.515 -49.664)" fill="none" stroke="#88d6e0" stroke-linecap="round" stroke-linejoin="round" stroke-width="1.969"/>
      <path id="Path_8178" data-name="Path 8178" d="M159.5,181.372a16.653,16.653,0,0,1-5.172,11.3H53.958a16.675,16.675,0,0,1,5.525-27.664,9.294,9.294,0,0,0,5.981-8.678V130.985h2.608V110.027a36.073,36.073,0,0,1,72.147,0v20.957h2.6v25.344a9.3,9.3,0,0,0,5.983,8.678A16.7,16.7,0,0,1,159.5,181.372Z" transform="translate(-13.793 -20.916)" fill="none" stroke="#35b9cb" stroke-linecap="round" stroke-linejoin="round" stroke-width="3.937"/>
      <path id="Path_8179" data-name="Path 8179" d="M165.371,228.278v10.773H35.305V228.278a10.777,10.777,0,0,1,7.418-10.24l20.584-6.747h74.061l20.584,6.747a10.778,10.778,0,0,1,7.418,10.24" transform="translate(-9.985 -59.758)" fill="#70cdda"/>
      <path id="Path_8180" data-name="Path 8180" d="M191.832,218.038l-20.584-6.747H155.092l20.584,6.747a10.778,10.778,0,0,1,7.418,10.24v10.774h16.155V228.278a10.778,10.778,0,0,0-7.418-10.24" transform="translate(-43.864 -59.758)" fill="#5bc6d5"/>
      <path id="Path_8181" data-name="Path 8181" d="M165.371,228.278v10.773H35.305V228.278a10.777,10.777,0,0,1,7.418-10.24l20.584-6.747h74.061l20.584,6.747A10.778,10.778,0,0,1,165.371,228.278Z" transform="translate(-9.985 -59.758)" fill="none" stroke="#35b9cb" stroke-linecap="round" stroke-linejoin="round" stroke-width="3.937"/>
      <path id="Path_8182" data-name="Path 8182" d="M148.411,204.436c-8.515,6.516-21.933,10.72-37.031,10.72s-28.516-4.2-37.031-10.72l15.021-4.923a9.3,9.3,0,0,0,5.2-4.268l4.308-8.179,12.5-.005,12.524-.008,4.392,8.256a9.288,9.288,0,0,0,5.182,4.232Z" transform="translate(-21.028 -52.903)" fill="#e6f6f8"/>
      <path id="Path_8183" data-name="Path 8183" d="M146.411,199.54a9.291,9.291,0,0,1-5.183-4.232l-4.392-8.256-8.478.005,4.39,8.251a9.289,9.289,0,0,0,5.182,4.232,6.5,6.5,0,0,1-.07,12.373,72.376,72.376,0,0,1-17.787,3.119c1.4.074,2.808.124,4.239.124,15.1,0,28.515-4.2,37.031-10.72Z" transform="translate(-33.959 -52.903)" fill="#c2eaef"/>
      <path id="Path_8184" data-name="Path 8184" d="M148.411,204.436c-8.515,6.516-21.933,10.72-37.031,10.72s-28.516-4.2-37.031-10.72l15.021-4.923a9.3,9.3,0,0,0,5.2-4.268l4.308-8.179,12.5-.005,12.524-.008,4.392,8.256a9.288,9.288,0,0,0,5.182,4.232Z" transform="translate(-21.028 -52.903)" fill="none" stroke="#35b9cb" stroke-linecap="round" stroke-linejoin="round" stroke-width="3.937"/>
      <path id="Path_8185" data-name="Path 8185" d="M140.558,127.319V143.8a27.142,27.142,0,0,1-.453,4.964,52.433,52.433,0,0,1-2.649,7.621,23.851,23.851,0,0,1-20.96,13.03,23.279,23.279,0,0,1-17.016-7.5A26.389,26.389,0,0,1,92.433,143.8V127.319h12.834a16.713,16.713,0,0,0,16.713-16.71,16.71,16.71,0,0,0,16.71,16.71Z" transform="translate(-26.142 -31.283)" fill="#e6f6f8"/>
      <path id="Path_8186" data-name="Path 8186" d="M146.9,133.646a16.7,16.7,0,0,1-4.671-.666v17.146a27.2,27.2,0,0,1-.453,4.964,52.6,52.6,0,0,1-2.649,7.621A24.11,24.11,0,0,1,121.457,175.5a22.792,22.792,0,0,0,3.247.238,23.851,23.851,0,0,0,20.961-13.029,52.69,52.69,0,0,0,2.649-7.621,27.269,27.269,0,0,0,.452-4.964V133.646Z" transform="translate(-34.351 -37.61)" fill="#c2eaef"/>
      <path id="Path_8187" data-name="Path 8187" d="M140.558,127.319V143.8a27.142,27.142,0,0,1-.453,4.964,52.433,52.433,0,0,1-2.649,7.621,23.851,23.851,0,0,1-20.96,13.03,23.279,23.279,0,0,1-17.016-7.5A26.389,26.389,0,0,1,92.433,143.8V127.319h12.834a16.713,16.713,0,0,0,16.713-16.71,16.71,16.71,0,0,0,16.71,16.71Z" transform="translate(-26.142 -31.283)" fill="none" stroke="#35b9cb" stroke-linecap="round" stroke-linejoin="round" stroke-width="3.937"/>
      <path id="Path_8188" data-name="Path 8188" d="M150.344,108.862V125.4h-7.621V108.862a32.6,32.6,0,0,0-65.2,0V125.4H69.9V108.862a40.221,40.221,0,0,1,80.443,0" transform="translate(-19.77 -19.413)" fill="#e6f6f8"/>
      <path id="Path_8189" data-name="Path 8189" d="M123.663,68.641a40.346,40.346,0,0,0-5.887.435A40.162,40.162,0,0,1,141.3,81.469a32.593,32.593,0,0,1,14.96,27.393V125.4h7.621V108.862a40.266,40.266,0,0,0-40.221-40.221" transform="translate(-33.31 -19.413)" fill="#c2eaef"/>
      <path id="Path_8190" data-name="Path 8190" d="M150.344,108.862V125.4h-7.621V108.862a32.6,32.6,0,0,0-65.2,0V125.4H69.9V108.862a40.221,40.221,0,0,1,80.443,0Z" transform="translate(-19.77 -19.413)" fill="none" stroke="#35b9cb" stroke-linecap="round" stroke-linejoin="round" stroke-width="3.937"/>
      <path id="Path_8191" data-name="Path 8191" d="M85.832,157.722H75.426a6.332,6.332,0,0,1-6.333-6.333V140.238a6.332,6.332,0,0,1,6.333-6.333H85.832Z" transform="translate(-19.541 -37.871)" fill="#70cdda"/>
      <path id="Path_8192" data-name="Path 8192" d="M159.536,157.722h10.406a6.332,6.332,0,0,0,6.333-6.333V140.238a6.332,6.332,0,0,0-6.333-6.333H159.536Z" transform="translate(-45.12 -37.871)" fill="#70cdda"/>
      <path id="Path_8193" data-name="Path 8193" d="M170.745,133.9h-8.369a6.333,6.333,0,0,1,6.333,6.333V151.39a6.333,6.333,0,0,1-6.333,6.333h8.369a6.333,6.333,0,0,0,6.333-6.333V140.238a6.333,6.333,0,0,0-6.333-6.333" transform="translate(-45.924 -37.871)" fill="#5bc6d5"/>
      <path id="Path_8194" data-name="Path 8194" d="M85.832,157.722H75.426a6.332,6.332,0,0,1-6.333-6.333V140.238a6.332,6.332,0,0,1,6.333-6.333H85.832Z" transform="translate(-19.541 -37.871)" fill="none" stroke="#35b9cb" stroke-linecap="round" stroke-linejoin="round" stroke-width="3.937"/>
      <path id="Path_8195" data-name="Path 8195" d="M159.536,157.722h10.406a6.332,6.332,0,0,0,6.333-6.333V140.238a6.332,6.332,0,0,0-6.333-6.333H159.536Z" transform="translate(-45.12 -37.871)" fill="none" stroke="#35b9cb" stroke-linecap="round" stroke-linejoin="round" stroke-width="3.937"/>
      <path id="Path_8196" data-name="Path 8196" d="M120.019,170.969c-.028,0-.056,0-.084,0h0a3.965,3.965,0,0,0-2.5,1.174,4.72,4.72,0,0,1-2.351,1.286,1.585,1.585,0,0,1-.462-.089.38.38,0,0,0-.145-.009.37.37,0,0,0-.245.146.366.366,0,0,0-.069.276.37.37,0,0,0,.281.3q.274.068.549.131a14.2,14.2,0,0,1,3.229,2.228,7.693,7.693,0,0,0,8.238,0,12.675,12.675,0,0,1,3.121-2.219q.271-.067.541-.138a.369.369,0,0,0,.277-.308.353.353,0,0,0-.009-.145.366.366,0,0,0-.174-.226.362.362,0,0,0-.138-.046.381.381,0,0,0-.145.011.923.923,0,0,1-.427.06,4.64,4.64,0,0,1-2.33-1.272,3.915,3.915,0,0,0-2.479-1.16,2.177,2.177,0,0,0-1.252.439c-.353.219-.723.486-1.131.744-.408-.258-.778-.525-1.131-.744A2.3,2.3,0,0,0,120.019,170.969Z" transform="translate(-32.287 -48.354)" fill="#9cdde5"/>
      <path id="Path_8197" data-name="Path 8197" d="M119.53,102l-.434,1.73a22.719,22.719,0,0,1-9.878,13.662l-4.791,3.035" transform="translate(-29.534 -28.847)" fill="none" stroke="#88d6e0" stroke-linecap="round" stroke-linejoin="round" stroke-width="1.969"/>
      <path id="Path_8198" data-name="Path 8198" d="M157.515,167.115h0a9.3,9.3,0,0,1-6.992,9.006l-10.6,2.709a9.3,9.3,0,0,1-2.3.29h-5.9" transform="translate(-37.254 -47.264)" fill="none" stroke="#35b9cb" stroke-linecap="round" stroke-linejoin="round" stroke-width="3.937"/>
      <path id="Path_8199" data-name="Path 8199" d="M128.394,185.645h-5.671a2.972,2.972,0,1,1,0-5.945h5.671a2.972,2.972,0,0,1,0,5.945" transform="translate(-33.868 -50.823)" fill="#35b9cb"/>
      <path id="Path_8200" data-name="Path 8200" d="M51.951,89.305a7.926,7.926,0,1,1-7.926-7.926,7.926,7.926,0,0,1,7.926,7.926" transform="translate(-10.21 -23.016)" fill="#e6f6f8"/>
      <line id="Line_75" data-name="Line 75" y2="0.608" transform="translate(33.815 59.691)" fill="none" stroke="#c2eaef" stroke-linecap="round" stroke-linejoin="round" stroke-width="1.969"/>
      <line id="Line_76" data-name="Line 76" y2="0.608" transform="translate(33.815 72.279)" fill="none" stroke="#c2eaef" stroke-linecap="round" stroke-linejoin="round" stroke-width="1.969"/>
      <line id="Line_77" data-name="Line 77" x1="0.608" transform="translate(39.805 66.289)" fill="none" stroke="#c2eaef" stroke-linecap="round" stroke-linejoin="round" stroke-width="1.969"/>
      <line id="Line_78" data-name="Line 78" x1="0.608" transform="translate(27.217 66.289)" fill="none" stroke="#c2eaef" stroke-linecap="round" stroke-linejoin="round" stroke-width="1.969"/>
      <line id="Line_79" data-name="Line 79" x2="2.119" y2="2.119" transform="translate(32.756 65.229)" fill="#c2eaef"/>
      <path id="Path_8201" data-name="Path 8201" d="M41.246,95,44.421,89.7l5.295-3.176L46.54,91.82Z" transform="translate(-11.665 -24.471)" fill="#c2eaef"/>
      <path id="Path_8202" data-name="Path 8202" d="M51.951,117.781a7.926,7.926,0,1,1-7.926-7.926,7.926,7.926,0,0,1,7.926,7.926" transform="translate(-10.21 -31.069)" fill="#e6f6f8"/>
      <line id="Line_80" data-name="Line 80" y2="0.608" transform="translate(33.815 80.114)" fill="none" stroke="#c2eaef" stroke-linecap="round" stroke-linejoin="round" stroke-width="1.969"/>
      <line id="Line_81" data-name="Line 81" y2="0.608" transform="translate(33.815 92.701)" fill="none" stroke="#c2eaef" stroke-linecap="round" stroke-linejoin="round" stroke-width="1.969"/>
      <line id="Line_82" data-name="Line 82" x1="0.608" transform="translate(39.805 86.711)" fill="none" stroke="#c2eaef" stroke-linecap="round" stroke-linejoin="round" stroke-width="1.969"/>
      <line id="Line_83" data-name="Line 83" x1="0.608" transform="translate(27.217 86.711)" fill="none" stroke="#c2eaef" stroke-linecap="round" stroke-linejoin="round" stroke-width="1.969"/>
      <line id="Line_84" data-name="Line 84" x2="2.119" y2="2.119" transform="translate(32.756 85.652)" fill="#c2eaef"/>
      <path id="Path_8203" data-name="Path 8203" d="M41.246,123.471l3.175-5.294L49.715,115,46.54,120.3Z" transform="translate(-11.665 -32.525)" fill="#c2eaef"/>
    </g>
  </g>
</svg>
