<?xml version="1.0" encoding="utf-8"?>
<!-- Generator: Adobe Illustrator 23.0.6, SVG Export Plug-In . SVG Version: 6.00 Build 0)  -->
<svg version="1.1" id="Capa_1" xmlns="http://www.w3.org/2000/svg" xmlns:xlink="http://www.w3.org/1999/xlink" x="0px" y="0px"
	 viewBox="0 0 84 84" style="enable-background:new 0 0 84 84;" xml:space="preserve">
<style type="text/css">
	.st0{fill:#FFFFFF;}
</style>
<path id="order-on-the-way" class="st0" d="M18.4,13.4c-1.2,0-2.1,1-2.1,2.1s1,2.1,2.1,2.1h25.1c11.1,0,20,8.9,20.1,20
	c0,4.8-1.7,9.4-4.8,13c0,0-10.1,11.5-13.8,15c-0.8,0.8-2.1,0.8-3,0c-3.1-2.9-13.7-15-13.8-15l0,0c-3.1-3.6-4.8-8.2-4.8-13V37
	c0-1.2-1-2.1-2.1-2.1h-2.9c-1.2,0-2.1,1-2.1,2.1c0,1.2,1,2.1,2.1,2.1h0.8c0.3,5.3,2.3,10.3,5.7,14.4l0,0c0,0,10.4,11.8,14,15.3
	c2.5,2.4,6.4,2.4,8.9,0c4.2-4,14.1-15.3,14.1-15.3l0,0c8.7-10.2,7.5-25.6-2.7-34.3c-4.4-3.8-10-5.9-15.8-5.8H18.4z M18.4,20.5
	c-1.2,0-2.1,1-2.1,2.1c0,1.2,1,2.1,2.1,2.1h7.9c1.2,0,2.1-1,2.1-2.1c0-1.2-1-2.1-2.1-2.1H18.4z M18.4,27.7c-1.2,0-2.1,1-2.1,2.1
	c0,1.2,1,2.1,2.1,2.1h3.6c1.2,0,2.1-1,2.1-2.1c0-1.2-1-2.1-2.1-2.1H18.4z M43.4,29.1c-2.4-0.1-4.8,0.9-6.4,2.7
	c-2.9,3.4-2.9,8.3,0,11.7c1.7,1.8,4,2.8,6.4,2.7c2.4,0.1,4.8-0.9,6.4-2.7c2.9-3.4,2.9-8.3,0-11.7C48.2,30.1,45.9,29.1,43.4,29.1
	L43.4,29.1z M43.4,33.4c1.2-0.1,2.4,0.4,3.2,1.3c1.4,1.7,1.4,4.3,0,6c-0.8,0.9-2,1.4-3.2,1.3c-1.2,0.1-2.4-0.4-3.2-1.3
	c-1.4-1.7-1.4-4.3,0-6C41,33.8,42.2,33.3,43.4,33.4L43.4,33.4z"/>
</svg>
