<?xml version="1.0" encoding="utf-8"?>
<!-- Generator: Adobe Illustrator 23.0.6, SVG Export Plug-In . SVG Version: 6.00 Build 0)  -->
<svg version="1.1" id="Capa_1" xmlns="http://www.w3.org/2000/svg" xmlns:xlink="http://www.w3.org/1999/xlink" x="0px" y="0px"
	 viewBox="0 0 84 84" style="enable-background:new 0 0 84 84;" xml:space="preserve">
<style type="text/css">
	.st0{fill:#FFFFFF;}
</style>
<path id="shipped" class="st0" d="M8.6,13.4C3.9,13.4,0,17.2,0,22v32.5C0,59.1,3.9,63,8.6,63H10c1.6,5.6,7.4,8.8,12.9,7.2
	c3.5-1,6.2-3.7,7.2-7.2h23.7c1.6,5.6,7.4,8.8,12.9,7.2c3.5-1,6.2-3.7,7.2-7.2h1.4c4.7,0,8.6-3.9,8.6-8.6V42.3c0-1.2-0.3-2.4-0.7-3.5
	l0,0l-5.6-12.7l0,0C76.2,23,73.2,21,69.8,21H57.2c-0.5-4.3-4.1-7.6-8.5-7.6H8.6z M8.6,19.1h40.1c1.6,0,2.8,1.2,2.9,2.8
	c0,0,0,0.1,0,0.1v35.3H30.1c-1.6-5.6-7.4-8.8-12.9-7.2c-3.5,1-6.2,3.7-7.2,7.2H8.6c-1.6,0-2.8-1.2-2.9-2.8c0,0,0-0.1,0-0.1V22
	C5.7,20.4,7,19.1,8.6,19.1C8.5,19.1,8.6,19.1,8.6,19.1z M57.3,26.7h12.5c1.1,0,2.2,0.7,2.6,1.7l3.5,7.8H57.3L57.3,26.7z M38.1,27.9
	c-0.7,0-1.5,0.3-2,0.9L26,38.9L21.1,34c-1.1-1.1-2.9-1.1-4.1,0c-1.1,1.1-1.1,2.9,0,4.1L24,45c1.1,1.1,2.9,1.1,4,0l12.2-12.1
	c1.1-1.1,1.2-2.9,0.1-4.1C39.7,28.2,38.9,27.9,38.1,27.9L38.1,27.9z M57.3,42h21c0,0.1,0,0.2,0,0.3v12.1c0,1.6-1.2,2.8-2.8,2.9
	c0,0-0.1,0-0.1,0h-1.4c-1.3-4.5-5.4-7.6-10.1-7.6c-2.4,0-4.8,0.9-6.7,2.4L57.3,42z M20,55.4c2.5,0,4.6,2,4.7,4.5c0,0.2,0,0.4,0,0.5
	c-0.1,2.6-2.4,4.6-5,4.5c-2.4-0.1-4.4-2.1-4.5-4.5c0-0.2,0-0.4,0-0.5C15.4,57.3,17.5,55.3,20,55.4z M64,55.4c2.6,0,4.8,2.1,4.8,4.8
	s-2.1,4.8-4.8,4.8s-4.8-2.1-4.8-4.8C59.2,57.5,61.3,55.4,64,55.4C63.9,55.4,63.9,55.4,64,55.4z"/>
</svg>
